<svg width="32" height="23" fill="none" xmlns="http://www.w3.org/2000/svg">
    <g >
        <path d="M.436 12.545c1.893 1.588 4.039 3.39 8.189 3.39s6.296-1.802 8.189-3.39c1.79-1.503 3.336-2.8 6.56-2.8 3.226 0 4.772 1.297 6.562 2.8a1.27 1.27 0 0 0 1.763-.132 1.205 1.205 0 0 0-.135-1.725c-1.893-1.589-4.039-3.39-8.19-3.39-4.15 0-6.295 1.801-8.188 3.39-1.79 1.502-3.336 2.8-6.561 2.8s-4.771-1.297-6.561-2.8A1.27 1.27 0 0 0 .3 10.82c-.45.513-.389 1.285.135 1.725z" fill="#78C081"/>
        <path d="M.436 5.854c1.893 1.59 4.039 3.39 8.189 3.39s6.296-1.8 8.189-3.39c1.79-1.502 3.336-2.8 6.56-2.8 3.226 0 4.772 1.298 6.562 2.8.524.44 1.313.381 1.763-.132a1.205 1.205 0 0 0-.135-1.724c-1.893-1.59-4.039-3.39-8.19-3.39-4.15 0-6.295 1.8-8.188 3.39-1.79 1.502-3.336 2.8-6.561 2.8S3.854 5.5 2.064 3.998A1.27 1.27 0 0 0 .3 4.13c-.45.512-.389 1.285.135 1.724zM31.564 17.377c-1.893-1.588-4.039-3.39-8.19-3.39-4.15 0-6.295 1.802-8.188 3.39-1.79 1.503-3.336 2.8-6.561 2.8s-4.771-1.297-6.561-2.8A1.27 1.27 0 0 0 .3 17.51a1.205 1.205 0 0 0 .135 1.725c1.893 1.589 4.039 3.39 8.189 3.39s6.296-1.801 8.189-3.39c1.79-1.502 3.336-2.8 6.56-2.8 3.226 0 4.772 1.298 6.562 2.8a1.27 1.27 0 0 0 1.763-.132c.45-.513.389-1.285-.135-1.725z" fill="#78C081"/>
    </g>
</svg>