<svg width="22" height="22" fill="none" xmlns="http://www.w3.org/2000/svg">
    <g>
        <circle cx="11" cy="11" r="11" fill="#78C081"/>
        <path d="M18.778 3.222A10.928 10.928 0 0 0 11 0C8.062 0 5.3 1.144 3.222 3.222A10.928 10.928 0 0 0 0 11c0 2.938 1.144 5.7 3.222 7.778A10.928 10.928 0 0 0 11 22c2.938 0 5.7-1.144 7.778-3.222A10.928 10.928 0 0 0 22 11c0-2.938-1.144-5.7-3.222-7.778zm-.486 15.07A10.245 10.245 0 0 1 11 21.312a10.245 10.245 0 0 1-7.292-3.02A10.245 10.245 0 0 1 .688 11c0-2.755 1.072-5.344 3.02-7.292A10.245 10.245 0 0 1 11 .688c2.755 0 5.344 1.072 7.292 3.02A10.245 10.245 0 0 1 21.312 11c0 2.755-1.072 5.344-3.02 7.292z" fill="#577A5B"/>
        <path d="M17.482 4.518A9.107 9.107 0 0 0 11 1.833c-2.449 0-4.75.954-6.482 2.685A9.107 9.107 0 0 0 1.833 11c0 2.448.954 4.75 2.685 6.482A9.107 9.107 0 0 0 11 20.167c2.448 0 4.75-.954 6.482-2.685A9.107 9.107 0 0 0 20.167 11c0-2.449-.954-4.75-2.685-6.482zm-.405 12.559A8.537 8.537 0 0 1 11 19.594a8.537 8.537 0 0 1-6.077-2.517A8.537 8.537 0 0 1 2.406 11c0-2.296.894-4.454 2.517-6.077A8.537 8.537 0 0 1 11 2.406c2.295 0 4.454.894 6.077 2.517A8.537 8.537 0 0 1 19.594 11a8.537 8.537 0 0 1-2.517 6.077z" fill="#577A5B"/>
        <path d="M11 5.013a.315.315 0 0 0 .315-.315v-.945a.315.315 0 0 0-.63 0v.945c0 .174.14.315.315.315zM10.685 17.302v.945a.315.315 0 0 0 .63 0v-.945a.315.315 0 1 0-.63 0zM5.013 11a.315.315 0 0 0-.315-.315h-.945a.315.315 0 0 0 0 .63h.945A.315.315 0 0 0 5.013 11zM16.987 11c0 .174.141.315.315.315h.945a.315.315 0 0 0 0-.63h-.945a.315.315 0 0 0-.315.315zM8.122 5.385l-.473-.819a.315.315 0 0 0-.546.315l.473.819a.315.315 0 1 0 .546-.315zM14.424 16.3a.315.315 0 0 0-.546.315l.473.819a.315.315 0 1 0 .546-.315l-.473-.819zM4.724 14.939a.314.314 0 0 0 .157-.042l.819-.473a.315.315 0 1 0-.315-.546l-.819.473a.315.315 0 0 0 .158.588zM16.458 8.164a.314.314 0 0 0 .157-.042l.819-.473a.315.315 0 0 0-.315-.545l-.819.472a.315.315 0 0 0 .158.588zM14.781 4.45a.315.315 0 0 0-.43.116l-.473.819a.315.315 0 1 0 .546.315l.473-.819a.315.315 0 0 0-.116-.43zM8.006 16.185a.315.315 0 0 0-.43.115l-.473.819a.315.315 0 1 0 .546.315l.473-.819a.315.315 0 0 0-.116-.43zM16.3 14.424l.819.473a.313.313 0 0 0 .43-.116.315.315 0 0 0-.115-.43l-.819-.473a.315.315 0 0 0-.315.546zM5.7 7.576l-.819-.473a.315.315 0 1 0-.315.546l.819.473a.313.313 0 0 0 .43-.116.315.315 0 0 0-.115-.43zM13.194 15.114a.315.315 0 0 0 .273-.473l-1.749-3.027a.947.947 0 0 0-.403-1.505v-4.15a.315.315 0 0 0-.63 0v4.15a.946.946 0 0 0 .488 1.82l1.747 3.028a.315.315 0 0 0 .274.157zM10.684 11a.315.315 0 1 1 .632 0 .315.315 0 0 1-.631 0z" fill="#577A5B"/>
    </g>
</svg>