<svg width="22" height="20" fill="none" xmlns="http://www.w3.org/2000/svg">
    <path d="M20.587 17.578h-.276V3.39c0-.97-.79-1.76-1.76-1.76h-.456A1.241 1.241 0 0 0 16.89.68H4.923c-.583 0-1.073.405-1.204.948h-.27c-.97 0-1.76.79-1.76 1.76v14.189h-.276a.414.414 0 0 0-.413.413v.915c0 .228.185.413.413.413h19.174a.414.414 0 0 0 .413-.413v-.915a.414.414 0 0 0-.413-.413zM2.27 3.388c0-.648.528-1.177 1.178-1.177H5.29a.291.291 0 1 0 0-.582h-.955a.657.657 0 0 1 .587-.366H16.89c.258 0 .48.15.588.366H6.568a.291.291 0 1 0 0 .582h11.983c.65 0 1.178.529 1.178 1.178v.094H2.27V3.39zm0 1.776H4.27c.403 0 .731.328.731.731v9.946a.732.732 0 0 1-.731.731H2.27V5.164zm-.688 13.573v-.576h1.456a.291.291 0 0 0 0-.583H2.27v-.423H4.27c.724 0 1.314-.59 1.314-1.314V5.895c0-.724-.59-1.313-1.314-1.313H2.27v-.516h8.438v2.987a.291.291 0 0 0 .582 0V4.066h8.438v.516H17.73c-.724 0-1.314.589-1.314 1.313v9.946c0 .725.59 1.314 1.314 1.314h1.998v.423H11.29V8.234a.291.291 0 0 0-.582 0v9.344H4.294a.291.291 0 1 0 0 .583h16.123v.576H1.584zM19.729 5.164v11.409H17.73A.732.732 0 0 1 17 15.84V5.895c0-.403.328-.73.731-.73h1.998z" fill="#78C081"/>
    <path d="M4.092 5.672H2.957a.291.291 0 1 0 0 .582h1.135a.291.291 0 1 0 0-.582zM4.092 6.762H2.957a.291.291 0 1 0 0 .582h1.135a.291.291 0 1 0 0-.582zM4.092 7.852H2.957a.291.291 0 1 0 0 .582h1.135a.291.291 0 1 0 0-.582zM4.092 8.942H2.957a.291.291 0 1 0 0 .582h1.135a.291.291 0 1 0 0-.582zM4.092 10.032H2.957a.291.291 0 1 0 0 .582h1.135a.291.291 0 0 0 0-.582zM4.092 11.122H2.957a.291.291 0 1 0 0 .583h1.135a.291.291 0 0 0 0-.583zM4.092 12.212H2.957a.291.291 0 1 0 0 .583h1.135a.291.291 0 0 0 0-.583zM4.092 13.302H2.957a.291.291 0 0 0 0 .583h1.135a.291.291 0 1 0 0-.583zM4.092 14.392H2.957a.291.291 0 0 0 0 .583h1.135a.291.291 0 1 0 0-.583zM4.092 15.482H2.957a.291.291 0 0 0 0 .583h1.135a.291.291 0 1 0 0-.583zM9.757 5.672H6.568a.291.291 0 1 0 0 .582h3.19a.291.291 0 1 0 0-.582zM9.757 4.582H6.568a.291.291 0 1 0 0 .582h3.19a.291.291 0 1 0 0-.582zM9.757 16.58H6.568a.291.291 0 0 0 0 .583h3.19a.291.291 0 1 0 0-.582zM9.757 6.762H6.568a.291.291 0 1 0 0 .582h3.19a.291.291 0 1 0 0-.582zM9.757 7.852H6.568a.291.291 0 1 0 0 .582h3.19a.291.291 0 1 0 0-.582zM9.757 8.942H6.568a.291.291 0 1 0 0 .582h3.19a.291.291 0 1 0 0-.582zM9.757 10.032H6.568a.291.291 0 1 0 0 .582h3.19a.291.291 0 0 0 0-.582zM9.757 11.122H6.568a.291.291 0 1 0 0 .583h3.19a.291.291 0 0 0 0-.583zM9.757 12.212H6.568a.291.291 0 1 0 0 .583h3.19a.291.291 0 0 0 0-.583zM9.757 13.302H6.568a.291.291 0 0 0 0 .583h3.19a.291.291 0 1 0 0-.583zM9.757 14.392H6.568a.291.291 0 0 0 0 .583h3.19a.291.291 0 1 0 0-.583zM9.757 15.482H6.568a.291.291 0 0 0 0 .583h3.19a.291.291 0 1 0 0-.583zM19.044 5.672h-1.136a.291.291 0 1 0 0 .582h1.136a.291.291 0 0 0 0-.582zM19.044 6.762h-1.136a.291.291 0 0 0 0 .582h1.136a.291.291 0 0 0 0-.582zM19.044 7.852h-1.136a.291.291 0 0 0 0 .582h1.136a.291.291 0 0 0 0-.582zM19.044 8.942h-1.136a.291.291 0 0 0 0 .582h1.136a.291.291 0 0 0 0-.582zM19.044 10.032h-1.136a.291.291 0 0 0 0 .582h1.136a.291.291 0 0 0 0-.582zM19.044 11.122h-1.136a.291.291 0 0 0 0 .583h1.136a.291.291 0 0 0 0-.583zM19.044 12.212h-1.136a.291.291 0 1 0 0 .583h1.136a.291.291 0 0 0 0-.583zM19.044 13.302h-1.136a.291.291 0 0 0 0 .583h1.136a.291.291 0 1 0 0-.583zM19.044 14.392h-1.136a.291.291 0 0 0 0 .583h1.136a.291.291 0 0 0 0-.583zM19.044 15.482h-1.136a.291.291 0 0 0 0 .583h1.136a.291.291 0 0 0 0-.583zM15.432 5.672h-3.228a.291.291 0 0 0 0 .582h3.228a.291.291 0 1 0 0-.582zM15.432 4.582h-3.228a.291.291 0 0 0 0 .582h3.228a.291.291 0 1 0 0-.582zM15.432 16.58h-3.228a.291.291 0 0 0 0 .583h3.228a.291.291 0 1 0 0-.582zM15.432 6.762h-3.228a.291.291 0 0 0 0 .582h3.228a.291.291 0 1 0 0-.582zM15.432 7.852h-3.228a.291.291 0 0 0 0 .582h3.228a.291.291 0 1 0 0-.582zM15.432 8.942h-3.228a.291.291 0 0 0 0 .582h3.228a.291.291 0 1 0 0-.582zM15.432 10.032h-3.228a.291.291 0 0 0 0 .582h3.228a.291.291 0 1 0 0-.582zM15.432 11.122h-3.228a.291.291 0 0 0 0 .583h3.228a.291.291 0 1 0 0-.583zM15.432 12.212h-3.228a.291.291 0 1 0 0 .583h3.228a.291.291 0 1 0 0-.583zM15.432 13.302h-3.228a.291.291 0 0 0 0 .583h3.228a.291.291 0 1 0 0-.583zM15.432 14.392h-3.228a.291.291 0 0 0 0 .583h3.228a.291.291 0 1 0 0-.583zM15.432 15.482h-3.228a.291.291 0 0 0 0 .583h3.228a.291.291 0 1 0 0-.583z" fill="#78C081"/>
</svg>