<svg width="17" height="17" fill="none" xmlns="http://www.w3.org/2000/svg">
    <path d="M7.674 9.123c-2.368 2.189-5.62 1.792-6.966-.309-1.735-2.707 1.115-6.488 3.66-3.624.742.831 1.723 2.75 3.31 2.54l-.004 1.393z" fill="#D7FFDB"/>
    <path d="M9.124 9.328c2.187 2.368 1.79 5.623-.308 6.97-2.707 1.735-6.487-1.118-3.625-3.664.833-.74 2.749-1.721 2.54-3.308l1.393.002z" fill="#9DFF94"/>
    <path d="M12.634 11.81c-.739-.832-1.72-2.748-3.307-2.539l.003-1.393c2.368-2.189 5.62-1.792 6.967.309 1.735 2.705-1.117 6.488-3.663 3.624z" fill="#D7FFDB"/>
    <path d="M7.879 7.673C5.69 5.304 6.089 2.05 8.187.703c2.707-1.735 6.487 1.118 3.624 3.664-.832.739-2.747 1.72-2.54 3.307L7.88 7.673z" fill="#9DFF94"/>
    <path d="M8.474 10.32a1.743 1.743 0 1 0 0-3.487 1.743 1.743 0 0 0 0 3.487z" fill="#fff"/>
    <path d="M.171 7.038a.177.177 0 0 0 .185-.169c.05-1.123.688-2.122 1.552-2.429.764-.27 1.59.037 2.329.868.504.567 1.12 1.644 1.999 2.226a.177.177 0 1 0 .196-.296c-.815-.539-1.415-1.586-1.93-2.166-1.134-1.275-2.186-1.153-2.713-.966C.793 4.46.06 5.59.002 6.853a.177.177 0 0 0 .17.185zM6.385 9.828c-1.608.859-3.472.76-4.748-.249a.177.177 0 1 0-.22.278c.761.602 1.711.907 2.7.907.813 0 1.653-.206 2.435-.624a.177.177 0 0 0-.167-.312zM.412 8.251a.177.177 0 0 0-.086.236c.103.22.231.436.371.624A.177.177 0 0 0 .981 8.9a3.295 3.295 0 0 1-.334-.563.177.177 0 0 0-.235-.086zM8.913 16.447c1.886-1.212 2.41-3.798 1.219-6.015a.177.177 0 1 0-.312.168c1.103 2.052.63 4.438-1.099 5.548-1.445.927-3.235.466-4-.545-.656-.865-.436-1.925.589-2.836.553-.492 1.576-1.08 2.169-1.917a.177.177 0 0 0-.29-.205c-.551.778-1.556 1.36-2.114 1.857-1.387 1.233-1.239 2.521-.637 3.315.902 1.192 2.92 1.627 4.475.63zM15.604 12.282c-.866.656-1.927.436-2.838-.589-.5-.564-1.11-1.628-1.977-2.212a.177.177 0 1 0-.198.293c.803.542 1.403 1.582 1.91 2.154 1.148 1.292 2.427 1.31 3.317.637 1.136-.862 1.66-2.865.628-4.474-1.22-1.903-3.905-2.414-6.114-1.164a.177.177 0 1 0 .174.308c2.045-1.157 4.523-.697 5.642 1.047.926 1.445.466 3.234-.544 4zM8.091.554C6.198 1.77 5.683 4.45 6.918 6.656a.177.177 0 1 0 .31-.174C6.082 4.44 6.546 1.967 8.282.852c1.445-.925 3.235-.466 4 .545.656.865.436 1.926-.589 2.837-.567.504-1.698 1.153-2.265 2.06a.177.177 0 1 0 .3.188c.527-.842 1.611-1.458 2.2-1.983 1.387-1.234 1.239-2.522.637-3.316-.86-1.137-2.865-1.66-4.475-.629z" fill="#78C081"/>
    <path d="M8.474 10.497c1.059 0 1.92-.862 1.92-1.92 0-1.06-.861-1.921-1.92-1.921s-1.92.861-1.92 1.92c0 1.06.861 1.921 1.92 1.921zm0-3.487a1.568 1.568 0 0 1 0 3.132 1.568 1.568 0 0 1-1.566-1.565c0-.864.702-1.567 1.566-1.567z" fill="#78C081"/>
</svg>