<svg width="22" height="21" fill="none" xmlns="http://www.w3.org/2000/svg">
    <g>
        <path d="M21.408 11.73v-.033l-.113-.118-3.564-4.746V1.386l-.31-.325H4.781l-.31.325v5.447L.907 11.579l-.113.118v.032l-.025.034.025.021v1.703c0 .373.142.73.393.995.251.263.592.412.947.412h17.934c.355 0 .696-.149.947-.413.251-.263.392-.621.393-.994v-1.703l.025-.021-.025-.034zM5.09 1.71h12.022v4.912H5.09V1.71zm-.16 5.561h12.342l3.08 4.102H1.85L4.93 7.27zm15.86 6.216c-.001.201-.077.393-.212.536a.705.705 0 0 1-.51.222H2.134a.705.705 0 0 1-.51-.222.778.778 0 0 1-.211-.536v-1.465h19.376v1.465z" fill="#78C081"/>
        <path d="m7.644 3.357-.31.325v1.902l.31.324h6.915l.31-.324V3.682l-.31-.325H7.644zM14.25 5.26H7.953V4.007h6.297v1.252zM7.823 16.717c.015-.205.2-.451.495-.781l-.45-.444c-.799.893-.932 1.408-.088 2.517.257.337.361.642.311.907-.07.371-.426.583-.43.585l.149.285.146.287c.025-.015.61-.352.741-1.022.09-.464-.055-.95-.433-1.447-.323-.425-.455-.69-.44-.887zM10.961 16.717c.015-.205.2-.451.496-.781l-.452-.444c-.798.893-.93 1.408-.087 2.517.257.337.362.642.312.907-.07.371-.427.583-.43.585l.148.285.147.287c.024-.014.61-.352.74-1.022.09-.464-.055-.95-.433-1.447-.323-.425-.455-.69-.44-.887zM14.1 16.717c.014-.205.2-.451.494-.781l-.451-.444c-.798.893-.931 1.408-.087 2.517.257.337.361.642.312.907-.07.371-.427.583-.43.585l.148.285.146.287c.025-.014.61-.352.741-1.022.09-.464-.055-.95-.433-1.447-.323-.425-.455-.69-.44-.887zM15 13.141a.5.5 0 1 1-1 0 .5.5 0 0 1 1 0zM17 13.141a.5.5 0 1 1-1 0 .5.5 0 0 1 1 0zM19 13.141a.5.5 0 1 1-1 0 .5.5 0 0 1 1 0z" fill="#78C081"/>
    </g>
</svg>