<svg width="20" height="18" fill="none" xmlns="http://www.w3.org/2000/svg">
    <g fill="#78C081">
        <path fill-rule="evenodd" clip-rule="evenodd" d="M12.075 10.668c0 .323.272.585.608.585h1.658a.597.597 0 0 0 .608-.585v-.607a.597.597 0 0 0-.608-.584h-1.658a.597.597 0 0 0-.608.584v.607zm.608.022a.022.022 0 0 1-.022-.022v-.607c0-.012.01-.021.022-.021h1.658c.012 0 .022.01.022.021v.607c0 .012-.01.022-.022.022h-1.658zM15.626 15.52c0 .155.131.281.293.281H16.866a.597.597 0 0 0 .609-.584v-1.213a.597.597 0 0 0-.609-.585H15.919a.287.287 0 0 0-.293.281c0 .156.131.282.293.282H16.866c.012 0 .023.01.023.022v1.213c0 .012-.01.022-.023.022H15.919a.287.287 0 0 0-.293.281zM12.075 13.094c0 .323.272.585.608.585h1.658a.597.597 0 0 0 .608-.585v-.606a.597.597 0 0 0-.608-.585h-1.658a.597.597 0 0 0-.608.585v.606zm.608.022a.022.022 0 0 1-.022-.022v-.606c0-.013.01-.022.022-.022h1.658c.012 0 .022.01.022.022v.606c0 .012-.01.022-.022.022h-1.658zM5.05 17.34c0 .364.309.66.688.66h1.105c.38 0 .688-.296.688-.66V16.506a.287.287 0 0 0-.293-.282.287.287 0 0 0-.293.282V17.339a.1.1 0 0 1-.102.098H5.738a.1.1 0 0 1-.101-.098V16.507a.287.287 0 0 0-.293-.282.287.287 0 0 0-.293.282V17.339zM13.157 17.437a.1.1 0 0 1-.102-.098V16.507a.287.287 0 0 0-.293-.282.287.287 0 0 0-.293.282V17.339c0 .365.308.661.688.661h1.105c.38 0 .687-.296.687-.66V16.506a.287.287 0 0 0-.293-.282.287.287 0 0 0-.293.282V17.339a.1.1 0 0 1-.101.098h-1.105zM5.05 12.525c0 1.684 1.422 3.049 3.174 3.049 1.753 0 3.174-1.365 3.174-3.049 0-1.683-1.421-3.048-3.174-3.048-1.752 0-3.173 1.365-3.173 3.048zm3.174 2.486c-1.429 0-2.587-1.113-2.587-2.486 0-1.373 1.158-2.485 2.587-2.485 1.43 0 2.588 1.113 2.588 2.485 0 1.373-1.159 2.486-2.588 2.486z"/>
        <path fill-rule="evenodd" clip-rule="evenodd" d="M8.224 15.574a.287.287 0 0 0 .293-.281V9.758a.287.287 0 0 0-.293-.281.287.287 0 0 0-.293.281v5.535c0 .155.132.281.293.281z"/>
        <path fill-rule="evenodd" clip-rule="evenodd" d="M5.05 12.525c0 .156.132.282.294.282h5.76a.287.287 0 0 0 .294-.282.287.287 0 0 0-.293-.281H5.344a.287.287 0 0 0-.293.281z"/>
        <path fill-rule="evenodd" clip-rule="evenodd" d="M5.98 14.681c.115.11.3.11.415 0l4.073-3.913a.274.274 0 0 0 0-.398.302.302 0 0 0-.414 0L5.98 14.283a.274.274 0 0 0 0 .398z"/>
        <path fill-rule="evenodd" clip-rule="evenodd" d="M10.468 14.681a.274.274 0 0 0 0-.398L6.395 10.37a.302.302 0 0 0-.415 0 .274.274 0 0 0 0 .398l4.074 3.913c.114.11.3.11.414 0zM8.422 5.101a.28.28 0 0 0 .203-.347l-.06-.205-.214-.731a.684.684 0 0 0-.662-.482H1.973a.684.684 0 0 0-.662.482l-.214.73-.06.206a.28.28 0 0 0 .203.347.305.305 0 0 0 .088.01.291.291 0 0 0 .273-.204l.105-.358.17-.579a.101.101 0 0 1 .097-.071h5.716c.045 0 .085.029.098.071l.169.579.105.358a.291.291 0 0 0 .29.205.305.305 0 0 0 .071-.01zM3.196 1.495c0 .155.131.281.293.281h2.683a.287.287 0 0 0 .293-.281.287.287 0 0 0-.293-.282H3.49a.287.287 0 0 0-.293.282z"/>
        <path d="M7.75 1.495a.31.31 0 0 1-.315.303.31.31 0 0 1-.316-.303.31.31 0 0 1 .316-.304.31.31 0 0 1 .316.304zM2.542 1.495a.31.31 0 0 1-.316.303.31.31 0 0 1-.315-.303.31.31 0 0 1 .315-.304.31.31 0 0 1 .316.304z"/>
        <path fill-rule="evenodd" clip-rule="evenodd" d="M18.76 5.101a.28.28 0 0 0 .203-.347l-.06-.205-.214-.731a.684.684 0 0 0-.662-.482h-5.716a.684.684 0 0 0-.662.482l-.214.73-.06.206a.28.28 0 0 0 .203.347.304.304 0 0 0 .089.01.291.291 0 0 0 .272-.204l.105-.358.17-.579a.101.101 0 0 1 .097-.071h5.716c.046 0 .085.029.098.071l.17.579.104.358a.291.291 0 0 0 .291.205.304.304 0 0 0 .07-.01zM13.535 1.495c0 .155.13.281.293.281h2.683a.287.287 0 0 0 .293-.281.287.287 0 0 0-.293-.282h-2.683a.287.287 0 0 0-.293.282z"/>
        <path d="M18.09 1.495a.31.31 0 0 1-.317.303.31.31 0 0 1-.315-.303.31.31 0 0 1 .316-.304.31.31 0 0 1 .315.304zM12.88 1.495a.31.31 0 0 1-.315.303.31.31 0 0 1-.316-.303.31.31 0 0 1 .316-.304.31.31 0 0 1 .316.304z"/>
        <path fill-rule="evenodd" clip-rule="evenodd" d="M8.974 8.827a.287.287 0 0 0 .293-.282V6.574a.674.674 0 0 0-.688-.66H7.277a.1.1 0 0 1-.101-.098V4.83a.287.287 0 0 0-.293-.281.287.287 0 0 0-.293.281v.986c0 .365.308.66.687.66H8.58a.1.1 0 0 1 .102.098v1.971c0 .156.131.282.293.282zM11.026 8.827a.287.287 0 0 0 .293-.282V6.574a.1.1 0 0 1 .101-.098h1.303c.38 0 .687-.295.687-.66V4.83a.287.287 0 0 0-.293-.281.287.287 0 0 0-.293.281v.986a.1.1 0 0 1-.101.098H11.42a.674.674 0 0 0-.687.66v1.971c0 .156.131.282.293.282z"/>
        <path fill-rule="evenodd" clip-rule="evenodd" d="M15.919 15.801a.287.287 0 0 1-.293-.281c0-.155.131-.281.293-.281h.293v-1.257h-.293a.287.287 0 0 1-.293-.281c0-.156.131-.282.293-.282h.293V9.152c0-.49-.414-.888-.925-.888H11.32v.281a.287.287 0 0 1-.293.282.287.287 0 0 1-.293-.282v-.281H9.267v.281a.287.287 0 0 1-.293.282.287.287 0 0 1-.293-.282v-.281H4.712c-.51 0-.924.397-.924.888v6.747c0 .49.414.888.924.888h.339v-.281c0-.156.131-.282.293-.282.162 0 .293.126.293.282v.28h1.308v-.28c0-.156.131-.282.293-.282.162 0 .293.126.293.282v.28h4.938v-.28c0-.156.131-.282.293-.282.162 0 .293.126.293.282v.28h1.308v-.28c0-.156.131-.282.293-.282.162 0 .293.126.293.282v.28h.338c.511 0 .925-.396.925-.887v-.098h-.293zm-8.8-6.974h8.168c.188 0 .339.145.339.325v6.747c0 .18-.151.325-.338.325H4.711a.332.332 0 0 1-.338-.325V9.152c0-.18.151-.325.338-.325H7.12z"/>
        <path d="M8.625 4.754a.28.28 0 0 1-.203.347.305.305 0 0 1-.07.01h.385c.51 0 .925-.396.925-.887V.888c0-.49-.414-.888-.925-.888H.924C.414 0 0 .398 0 .888v3.336c0 .49.414.888.924.888h.386a.305.305 0 0 1-.07-.01.28.28 0 0 1-.203-.348l.06-.205H.924a.332.332 0 0 1-.338-.325V.888c0-.18.152-.325.338-.325h7.813c.187 0 .339.146.339.325v3.336c0 .18-.152.325-.339.325h-.172l.06.205z"/>
        <path d="m8.06 4.907-.104-.358h-6.25l-.105.358a.291.291 0 0 1-.273.205H6.59V4.83c0-.155.13-.281.293-.281.162 0 .293.126.293.281v.282h1.158a.291.291 0 0 1-.273-.205zM18.963 4.754a.28.28 0 0 1-.203.347.304.304 0 0 1-.07.01h.386c.51 0 .924-.396.924-.887V.888c0-.49-.414-.888-.924-.888h-7.813c-.51 0-.925.398-.925.888v3.336c0 .49.415.888.925.888h.385a.304.304 0 0 1-.07-.01.28.28 0 0 1-.203-.348l.06-.205h-.172a.332.332 0 0 1-.339-.325V.888c0-.18.152-.325.339-.325h7.813c.186 0 .338.145.338.325v3.336c0 .18-.152.325-.338.325h-.173l.06.205z"/>
        <path d="m18.4 4.907-.106-.358h-6.25l-.105.358a.291.291 0 0 1-.272.205h1.157V4.83c0-.155.132-.281.293-.281.162 0 .293.126.293.281v.282H18.672a.291.291 0 0 1-.273-.205z"/>
    </g>
</svg>