<svg width="28" height="24" fill="none" xmlns="http://www.w3.org/2000/svg">
    <g>
        <path fill-rule="evenodd" clip-rule="evenodd" d="M8.581 3.32C9.554 1.357 11.614 0 14 0c2.386 0 4.446 1.356 5.419 3.32.25-.023.504-.035.76-.035C24.5 3.285 28 6.703 28 10.92s-3.501 7.635-7.82 7.635h-1.83a4.306 4.306 0 0 1-1.18 4.163c-1.75 1.71-4.59 1.71-6.34 0a4.306 4.306 0 0 1-1.18-4.163H7.82C3.501 18.555 0 15.137 0 10.92s3.501-7.635 7.82-7.635c.257 0 .51.012.761.036zm2.985 14.865.016-.026c.113-.178.249-.346.407-.5a2.897 2.897 0 0 1 3.357-.484l-3.852 3.76c-.473-.859-.45-1.91.072-2.75zm1.088 3.883a2.897 2.897 0 0 0 3.357-.483 2.729 2.729 0 0 0 .495-3.277l-3.852 3.76zm4.902-5.115a4.462 4.462 0 0 0-.385-.427c-1.751-1.71-4.59-1.71-6.342 0-.14.136-.268.279-.385.427H7.82c-3.413 0-6.18-2.701-6.18-6.033 0-3.332 2.767-6.034 6.18-6.034.385 0 .761.035 1.126.1.398.072.79-.15.923-.523.597-1.667 2.222-2.861 4.131-2.861 1.909 0 3.534 1.194 4.13 2.861a.823.823 0 0 0 .924.523c.364-.065.74-.1 1.126-.1 3.413 0 6.18 2.702 6.18 6.034s-2.767 6.033-6.18 6.033h-2.624zM14 8.52c-.45 0-.82.362-.82.8v2.136c0 .44.37.801.82.801.45 0 .82-.362.82-.8V9.32c0-.439-.37-.801-.82-.801zm-2.461.8c0-1.323 1.106-2.402 2.461-2.402 1.355 0 2.46 1.08 2.46 2.403v2.136c0 1.323-1.105 2.402-2.46 2.402s-2.461-1.08-2.461-2.402V9.32zm-5.906 0c0-1.324 1.104-2.402 2.46-2.402h1.641a.81.81 0 0 1 .82.801.81.81 0 0 1-.82.8h-1.64c-.45 0-.82.362-.82.802v2.135c0 .44.37.801.82.801H9.68a.81.81 0 0 1 .82.801.81.81 0 0 1-.82.801H8.094c-1.357 0-2.461-1.078-2.461-2.403V9.32zM19.63 11.06c-.14-.04-.398-.06-.798.045a.823.823 0 0 1-1.004-.566.8.8 0 0 1 .58-.981c1.199-.314 2.327-.06 2.831.829.41.723.216 1.55-.34 2.134h.729a.81.81 0 0 1 .82.8.81.81 0 0 1-.82.801h-3.281a.818.818 0 0 1-.784-.564.79.79 0 0 1 .321-.898l1.69-1.126c.154-.104.212-.207.231-.267.019-.059.007-.09-.001-.105-.006-.01-.04-.064-.174-.102z" fill="#78C081"/>
    </g>
</svg>