<svg width="28" height="28" fill="none" xmlns="http://www.w3.org/2000/svg">
    <g>
        <path d="M14 0a14 14 0 1 0 14 14A14.016 14.016 0 0 0 14 0zm0 27.067A13.066 13.066 0 1 1 27.067 14 13.082 13.082 0 0 1 14 27.067z" fill="#78C081"/>
        <path d="M14 27.067A13.066 13.066 0 1 1 27.067 14 13.082 13.082 0 0 1 14 27.067z" fill="#78C081"/>
        <path d="M5.155 19.828c-1.581-2.043-2.34-4.557-2.137-7.085.202-2.53 1.35-4.905 3.238-6.699 1.888-1.793 4.39-2.884 7.051-3.076 2.662-.193 5.308.528 7.459 2.03L5.155 19.827z" fill="#fff"/>
        <path fill-rule="evenodd" clip-rule="evenodd" d="M22 4.928a.449.449 0 0 0-.181-.339c-2.333-1.803-5.287-2.72-8.29-2.574-3.004.146-5.844 1.346-7.97 3.366-2.127 2.02-3.39 4.718-3.543 7.572-.154 2.853.812 5.66 2.71 7.875a.488.488 0 0 0 .356.172h.025a.513.513 0 0 0 .348-.137l16.4-15.58A.465.465 0 0 0 22 4.928zM3.017 12.742c-.202 2.53.556 5.043 2.137 7.086l15.611-14.83c-2.151-1.502-4.797-2.223-7.459-2.03-2.662.192-5.163 1.283-7.05 3.076-1.888 1.794-3.037 4.17-3.24 6.699z" fill="#fff"/>
        <path d="M13.745 25.058a11.543 11.543 0 0 1-6.494-1.96L22.945 8.19a10.22 10.22 0 0 1 2.064 6.168c-.004 2.837-1.192 5.556-3.303 7.563-2.112 2.006-4.975 3.134-7.961 3.137z" fill="#fff"/>
        <path fill-rule="evenodd" clip-rule="evenodd" d="M23.39 7.18a.491.491 0 0 0-.36-.18.531.531 0 0 0-.38.138L6.145 22.818a.47.47 0 0 0-.144.36.453.453 0 0 0 .189.343c2.151 1.614 4.814 2.487 7.555 2.48 3.249-.004 6.364-1.232 8.662-3.415 2.297-2.182 3.59-5.142 3.593-8.228.009-2.604-.911-5.134-2.61-7.178zM7.252 23.1a11.543 11.543 0 0 0 6.494 1.96c2.986-.004 5.85-1.132 7.96-3.138 2.112-2.006 3.3-4.726 3.304-7.563a10.22 10.22 0 0 0-2.064-6.168L7.25 23.1z" fill="#fff"/>
        <path d="M12 8.21a1.21 1.21 0 1 0 2.421 0 1.21 1.21 0 0 0-2.421 0zm1.488 0a.278.278 0 1 1-.556 0 .278.278 0 0 1 .556 0zM22.21 13a1.21 1.21 0 1 0 0 2.421 1.21 1.21 0 0 0 0-2.42zm0 1.488a.278.278 0 1 1 0-.556.278.278 0 0 1 0 .556zM6.5 9a2.5 2.5 0 1 0 0 5 2.5 2.5 0 0 0 0-5zm0 3.627a1.127 1.127 0 1 1 0-2.254 1.127 1.127 0 0 1 0 2.255zM20.64 20.074l-.242-.084a2.305 2.305 0 0 0-.069-1.552 2.357 2.357 0 0 0-1.042-1.168l.106-.506a.523.523 0 0 0-.078-.399.548.548 0 0 0-.748-.152.53.53 0 0 0-.233.337l-.043.21a1.87 1.87 0 0 0-.892-.655 1.905 1.905 0 0 0-1.112-.041 1.877 1.877 0 0 0-.94.585 1.823 1.823 0 0 0-.435 1.005c-.058.022-.11.052-.167.077l-.331-.383a.544.544 0 0 0-.947.305.524.524 0 0 0 .126.386l.294.336a2.441 2.441 0 0 0-.415 2.572l-.256.188a.524.524 0 0 0-.108.743.542.542 0 0 0 .756.106l.226-.166a2.578 2.578 0 0 0 2.565.537l.068.25a.532.532 0 0 0 .25.323.549.549 0 0 0 .739-.192.523.523 0 0 0 .055-.402l-.154-.57c.044-.043.088-.084.128-.13a2.396 2.396 0 0 0 1.314-.165c.299-.127.568-.313.79-.546l.434.152a.551.551 0 0 0 .582-.145.529.529 0 0 0 .086-.584.53.53 0 0 0-.307-.272zm-2.532.527c-.141 0-.282-.023-.416-.067a.548.548 0 0 0-.629.22c-.099.156-.227.292-.377.4l-.013.009a1.48 1.48 0 0 1-1.251.214 1.473 1.473 0 0 1-.572-.307 1.417 1.417 0 0 1-.318-1.765c.105-.19.252-.353.43-.48a1.48 1.48 0 0 1 .6-.25.542.542 0 0 0 .344-.215.523.523 0 0 0 .093-.391.767.767 0 0 1 .125-.565.805.805 0 0 1 1.067-.229.78.78 0 0 1 .354.462c.031.112.1.21.193.28.094.07.21.109.327.109.01 0 .031 0 .053-.002.348 0 .681.138.927.38a1.278 1.278 0 0 1-.006 1.823c-.247.24-.581.376-.93.375z" fill="#78C081"/>
    </g>
</svg>