<svg width="20" height="14" fill="none" xmlns="http://www.w3.org/2000/svg">
    <g >
        <g fill="#78C081">
            <path fill-rule="evenodd" clip-rule="evenodd" d="M14.348 13.402a.03.03 0 0 1-.03-.031V12.38a.296.296 0 0 0-.286-.299h-.014a.296.296 0 0 0-.286.3v.99c0 .347.276.629.616.629h2.589c.34 0 .616-.282.616-.63v-.99a.296.296 0 0 0-.285-.299h-.015a.296.296 0 0 0-.285.3v.99a.03.03 0 0 1-.031.031h-2.589zM5.805 5.99c.115.116.3.116.415 0l1.917-1.957a.708.708 0 0 0-.056-1.044l-.005-.004a4.135 4.135 0 0 0-2.152-.905.692.692 0 0 0-.755.698v2.767c0 .165.131.299.293.299a.296.296 0 0 0 .293-.299V2.778c0-.061.052-.11.114-.103a3.555 3.555 0 0 1 1.842.778.107.107 0 0 1 .011.157L5.805 5.566a.303.303 0 0 0 0 .423z"/>
            <path fill-rule="evenodd" clip-rule="evenodd" d="M1.289 5.858a.699.699 0 0 0 .683.78h2.712a.296.296 0 0 0 .293-.298.296.296 0 0 0-.293-.3H1.972a.104.104 0 0 1-.1-.116c.077-.706.35-1.351.762-1.88a.102.102 0 0 1 .154-.011l1.917 1.956c.114.117.3.117.414 0a.303.303 0 0 0 0-.423L3.202 3.61a.677.677 0 0 0-1.027.062 4.313 4.313 0 0 0-.886 2.186z"/>
            <path fill-rule="evenodd" clip-rule="evenodd" d="M4.99 10.598a.691.691 0 0 0 .765-.697V7.134a.296.296 0 0 0-.293-.299.296.296 0 0 0-.293.3V9.9c0 .061-.052.11-.114.103a3.556 3.556 0 0 1-1.842-.778.107.107 0 0 1-.011-.157l1.917-1.956a.303.303 0 0 0 0-.423.289.289 0 0 0-.414 0L2.788 8.646a.708.708 0 0 0 .06 1.048m2.142.904a4.136 4.136 0 0 1-2.142-.904l2.142.904z"/>
            <path fill-rule="evenodd" clip-rule="evenodd" d="M7.722 9.07a.68.68 0 0 0 1.027-.062 4.313 4.313 0 0 0 .886-2.187.7.7 0 0 0-.683-.78H6.24a.296.296 0 0 0-.293.299c0 .165.13.299.293.299h2.711c.06 0 .108.053.101.116a3.708 3.708 0 0 1-.762 1.88.102.102 0 0 1-.154.011L6.22 6.69a.289.289 0 0 0-.415 0 .303.303 0 0 0 0 .423l1.917 1.956z"/>
            <path fill-rule="evenodd" clip-rule="evenodd" d="M4.39 6.34c0 .604.48 1.093 1.072 1.093.592 0 1.072-.49 1.072-1.093 0-.604-.48-1.094-1.072-1.094-.592 0-1.071.49-1.071 1.094zm1.072.495a.49.49 0 0 1-.485-.495.49.49 0 0 1 .485-.496.49.49 0 0 1 .486.496.49.49 0 0 1-.486.495zM14.87 5.99c.115.116.3.116.415 0l1.917-1.957a.713.713 0 0 0-.06-1.048 4.135 4.135 0 0 0-2.143-.904.694.694 0 0 0-.765.697v2.767c0 .165.132.299.293.299a.296.296 0 0 0 .293-.299V2.778c0-.061.053-.11.114-.103a3.555 3.555 0 0 1 1.842.778.107.107 0 0 1 .012.157L14.87 5.566a.303.303 0 0 0 0 .423z"/>
            <path fill-rule="evenodd" clip-rule="evenodd" d="M10.354 5.858a.697.697 0 0 0 .684.78h2.71a.296.296 0 0 0 .294-.298.296.296 0 0 0-.293-.3h-2.712a.104.104 0 0 1-.1-.116c.077-.706.35-1.351.762-1.88a.102.102 0 0 1 .154-.011l1.917 1.956c.114.117.3.117.414 0a.303.303 0 0 0 0-.423L12.267 3.61a.68.68 0 0 0-1.027.062 4.314 4.314 0 0 0-.886 2.186z"/>
            <path fill-rule="evenodd" clip-rule="evenodd" d="M14.055 10.598a.694.694 0 0 0 .765-.697V7.134a.296.296 0 0 0-.293-.299.296.296 0 0 0-.293.3V9.9c0 .061-.052.11-.114.103a3.556 3.556 0 0 1-1.842-.778.107.107 0 0 1-.01-.157l1.916-1.956a.303.303 0 0 0 0-.423.289.289 0 0 0-.414 0l-1.917 1.956c-.294.3-.26.788.06 1.048m2.142.904a4.136 4.136 0 0 1-2.142-.904l2.142.904z"/>
            <path fill-rule="evenodd" clip-rule="evenodd" d="M16.788 9.07a.68.68 0 0 0 1.026-.063 4.312 4.312 0 0 0 .887-2.186.697.697 0 0 0-.684-.78h-2.711a.296.296 0 0 0-.293.299c0 .165.131.299.293.299h2.711c.06 0 .108.053.101.116a3.708 3.708 0 0 1-.762 1.88.102.102 0 0 1-.154.011L15.285 6.69a.289.289 0 0 0-.414 0 .303.303 0 0 0 0 .423l1.917 1.956z"/>
            <path fill-rule="evenodd" clip-rule="evenodd" d="M10.328 6.34c0 2.366 1.88 4.285 4.2 4.285 2.319 0 4.199-1.919 4.199-4.285 0-2.367-1.88-4.286-4.2-4.286-2.319 0-4.2 1.919-4.2 4.286zm4.2 3.687c-1.996 0-3.614-1.65-3.614-3.687s1.618-3.688 3.613-3.688c1.996 0 3.614 1.65 3.614 3.688 0 2.036-1.618 3.687-3.614 3.687z"/>
            <path fill-rule="evenodd" clip-rule="evenodd" d="M13.456 6.34c0 .604.48 1.093 1.071 1.093.592 0 1.072-.49 1.072-1.093 0-.604-.48-1.094-1.072-1.094-.591 0-1.071.49-1.071 1.094zm1.071.495a.49.49 0 0 1-.485-.495.49.49 0 0 1 .485-.496.49.49 0 0 1 .486.496.49.49 0 0 1-.486.495zM2.446 13.37c0 .348.277.63.617.63h2.589c.34 0 .616-.282.616-.63v-.99a.296.296 0 0 0-.286-.299h-.014a.296.296 0 0 0-.286.3v.99a.03.03 0 0 1-.03.031H3.063a.03.03 0 0 1-.03-.031V12.38a.296.296 0 0 0-.286-.299h-.015a.296.296 0 0 0-.286.3v.99zM8.755 10.326c0 .165.13.3.293.3h1.894a.296.296 0 0 0 .293-.3.296.296 0 0 0-.293-.299H9.048a.296.296 0 0 0-.293.3z"/>
            <path d="M13.732 12.38c0-.163.127-.295.286-.299H5.982a.296.296 0 0 1 .286.3v.298H13.732v-.299zM5.682 12.38c0-.163.128-.295.286-.299H2.747a.296.296 0 0 1 .285.3v.298h2.65v-.299zM14.318 12.38v.3h2.65v-.3c0-.163.127-.295.285-.299h-3.221a.296.296 0 0 1 .286.3z"/>
            <path d="M1.082 12.081a.502.502 0 0 1-.496-.506V1.104c0-.28.222-.507.496-.507h17.836c.274 0 .496.227.496.506v10.47c0 .28-.222.507-.496.507h-1.65a.296.296 0 0 1 .285.3v.298h1.365c.597 0 1.082-.495 1.082-1.104V1.104C20 .494 19.515 0 18.918 0H1.082C.485 0 0 .494 0 1.104v10.47c0 .61.485 1.105 1.082 1.105h1.364v-.299c0-.163.128-.295.286-.299h-1.65z"/>
            <path d="M5.178 2.663a.692.692 0 0 1 .746-.583 4.161 4.161 0 0 0-1.449.093c-.927.275-1.63.764-2.137 1.347a.677.677 0 0 1 .753-.002 3.275 3.275 0 0 1 1.522-.764 3.52 3.52 0 0 1 .565-.091zM8.081 2.99c.286.235.34.656.13.955.481.575.793 1.304.854 2.105a.7.7 0 0 1 .57.771 4.313 4.313 0 0 1-.886 2.186.68.68 0 0 1-.94.137 3.56 3.56 0 0 1-2.063.872.691.691 0 0 1-.756.582 4.136 4.136 0 0 1-2.142-.904.714.714 0 0 1-.134-.96A3.712 3.712 0 0 1 1.86 6.63a.699.699 0 0 1-.575-.695 3.866 3.866 0 0 0-.022.405c0 2.368 1.88 4.286 4.2 4.286 2.318 0 4.199-1.918 4.199-4.286A4.31 4.31 0 0 0 8.08 2.99z"/>
        </g>
    </g>

</svg>