<svg width="20" height="16" fill="none" xmlns="http://www.w3.org/2000/svg">
    <g fill="#78C081">
        <path d="M10.97 2.29v3.566c0 .152.13.276.293.276h7.181c.162 0 .293-.124.293-.276V2.29c0-.153-.13-.276-.293-.276h-7.181c-.162 0-.293.123-.293.276zm.586 1.465h6.595v.637h-6.595v-.637zm0 1.825v-.637h6.595v.637h-6.595zm6.595-3.014v.637h-6.595v-.637h6.595zM1.556 2.015c-.162 0-.293.123-.293.276v3.565c0 .152.13.276.293.276h7.181c.162 0 .293-.124.293-.276V2.29c0-.153-.13-.276-.293-.276H1.556zm.293 1.74h6.595v.637H1.85v-.637zm0 1.825v-.637h6.595v.637H1.85zm6.595-3.014v.637H1.85v-.637h6.595z"/>
        <path d="M14.094 15.038a.264.264 0 0 0 0-.39.306.306 0 0 0-.414 0l-.29.273v-.077c0-.125.035-.172.105-.266a.885.885 0 0 0 .211-.581.885.885 0 0 0-.21-.582c-.07-.094-.106-.14-.106-.265s.035-.172.105-.265a.885.885 0 0 0 .211-.582.918.918 0 0 0-.027-.23h2.875a.332.332 0 0 1 .078.23c0 .125-.035.172-.105.265a.885.885 0 0 0-.21.582c0 .299.121.462.21.582.07.093.105.14.105.265 0 .124-.035.171-.105.265a.885.885 0 0 0-.21.582v.077l-.29-.272a.306.306 0 0 0-.414 0 .267.267 0 0 0-.086.195c0 .07.029.14.086.195l.79.742c.114.108.3.108.414 0l.789-.743a.264.264 0 0 0 0-.39.306.306 0 0 0-.415 0l-.289.273v-.077c0-.125.035-.172.105-.266.09-.119.211-.283.211-.581 0-.3-.122-.463-.21-.582-.07-.094-.106-.14-.106-.265s.035-.172.105-.265a.885.885 0 0 0 .211-.582.919.919 0 0 0-.027-.23h1.727c.597 0 1.082-.456 1.082-1.018v-9.21c0-.561-.485-1.018-1.082-1.018H5.791c-.162 0-.293.123-.293.275 0 .153.13.276.293.276h13.127c.274 0 .496.21.496.467v9.21c0 .258-.223.467-.496.467h-2.011a.459.459 0 0 1-.005-.066c0-.124.035-.171.105-.265.057-.076.127-.17.17-.306h1.267c.162 0 .293-.123.293-.275V7.044c0-.152-.13-.275-.293-.275h-7.181c-.162 0-.293.123-.293.275v3.566c0 .152.13.275.293.275h1.745a.876.876 0 0 0-.201.637h-1.124c-.162 0-.293.124-.293.276 0 .152.131.276.293.276h1.359a.332.332 0 0 1 .078.23c0 .124-.035.17-.104.264a.885.885 0 0 0-.211.582c0 .299.122.462.21.582.07.093.105.14.105.265 0 .124-.035.171-.104.265a.885.885 0 0 0-.211.581v.078l-.29-.273a.306.306 0 0 0-.414 0 .267.267 0 0 0-.086.195c0 .071.029.142.086.195l.79.743c.114.108.3.108.414 0l.789-.743zm4.057-5.892h-6.595v-.637h6.595v.637zm0-1.826v.637h-6.595V7.32h6.595zm-6.595 3.014v-.637h6.595v.637h-6.595zm1.835 1.122c0-.124.034-.171.104-.265.057-.076.127-.17.17-.306h2.855a.875.875 0 0 0-.201.637h-2.924a.444.444 0 0 1-.005-.066z"/>
        <path d="M5.906 14.649a.267.267 0 0 0-.086.195c0 .07.029.14.086.195l.79.742c.114.108.3.108.414 0l.789-.742a.264.264 0 0 0 0-.39.306.306 0 0 0-.415 0l-.289.272v-.077c0-.125.035-.172.105-.266a.885.885 0 0 0 .211-.581.885.885 0 0 0-.21-.582c-.07-.094-.106-.14-.106-.265s.035-.172.105-.265c.09-.12.211-.283.211-.582a.92.92 0 0 0-.027-.23h2.832c.161 0 .293-.123.293-.275 0-.152-.132-.276-.293-.276H7.2a.458.458 0 0 1-.005-.066c0-.124.035-.171.105-.264.057-.077.127-.17.17-.306h1.267c.162 0 .293-.124.293-.276V7.044c0-.152-.13-.275-.293-.275H1.556c-.162 0-.293.123-.293.275v3.566c0 .152.13.276.293.276H3.3a.876.876 0 0 0-.201.636H1.082c-.273 0-.496-.21-.496-.467v-9.21c0-.257.223-.467.496-.467h3.341c.162 0 .293-.123.293-.276 0-.152-.13-.275-.293-.275h-3.34C.484.827 0 1.284 0 1.845v9.21c0 .562.485 1.019 1.082 1.019h2.253a.332.332 0 0 1 .078.23c0 .124-.035.17-.104.264a.885.885 0 0 0-.211.582c0 .299.122.462.21.582.07.093.105.14.105.265 0 .124-.035.171-.104.265a.885.885 0 0 0-.211.581v.078l-.29-.273a.306.306 0 0 0-.414 0 .267.267 0 0 0-.086.195c0 .071.029.142.086.195l.79.743c.114.108.3.108.414 0l.789-.743a.264.264 0 0 0 0-.39.306.306 0 0 0-.414 0l-.29.273v-.077c0-.125.036-.172.105-.266A.885.885 0 0 0 4 13.997c0-.3-.122-.463-.21-.582-.07-.094-.105-.14-.105-.265s.035-.172.104-.265A.885.885 0 0 0 4 12.303a.92.92 0 0 0-.027-.23h2.875a.332.332 0 0 1 .078.23c0 .125-.035.172-.104.265a.885.885 0 0 0-.212.582c0 .299.122.462.211.582.07.093.105.14.105.265 0 .124-.035.171-.105.265-.089.12-.21.283-.21.582v.077l-.29-.272a.306.306 0 0 0-.414 0zm2.538-5.503H1.85v-.637h6.595v.637zm0-1.826v.637H1.85V7.32h6.595zM1.85 10.334v-.637h6.595v.637H1.85zm1.835 1.122c0-.124.035-.171.104-.265.057-.076.127-.17.17-.306h2.854a.876.876 0 0 0-.2.637H3.688a.457.457 0 0 1-.004-.066z"/>
    </g>
</svg>