<svg width="20" height="20" fill="none" xmlns="http://www.w3.org/2000/svg">
    <g fill="#78C081">
        <path d="M1.875 19.688h16.25a1.565 1.565 0 0 0 1.563-1.563V1.875A1.564 1.564 0 0 0 18.125.312H1.875A1.564 1.564 0 0 0 .312 1.875v16.25a1.564 1.564 0 0 0 1.563 1.563zm-.938-1.563V1.875c.001-.14.033-.276.094-.402l3.125 3.125A.929.929 0 0 0 4.063 5v10c0 .14.032.277.093.402l-3.125 3.125a.922.922 0 0 1-.093-.402zM18.97 1.473a.922.922 0 0 1 .093.402v16.25c0 .14-.032.276-.093.402l-3.125-3.125a.927.927 0 0 0 .094-.402V5a.922.922 0 0 0-.094-.402l3.125-3.125zm-3.657 12.59h-4.374v-.626h4.374v.626zm0-1.25h-4.374v-.626h4.374v.626zm0-1.25h-4.374v-.626h4.374v.626zm0-1.25h-4.374v-.626h4.374v.626zm0-1.25h-4.374v-.626h4.374v.626zm0-1.25h-4.374v-.625h4.374v.625zm0-1.25h-4.374v-.625h4.374v.625zm-4.374 8.125h4.374V15a.313.313 0 0 1-.312.313h-4.063v-.626zM15.311 5v.313h-4.374v-.625H15a.313.313 0 0 1 .313.312zm-5 10.313h-.624V4.687h.624v10.625zM4.689 5.937h4.375v.625H4.686v-.625zm0 1.25h4.375v.625H4.686v-.625zm0 1.25h4.375v.626H4.686v-.626zm0 1.25h4.375v.626H4.686v-.626zm0 1.25h4.375v.626H4.686v-.626zm0 1.25h4.375v.626H4.686v-.626zm0 1.25h4.375v.626H4.686v-.626zm0 1.563v-.313h4.375v.626H5A.312.312 0 0 1 4.687 15zm4.375-9.688H4.686V5A.312.312 0 0 1 5 4.687h4.063v.625zm-7.188 13.75a.922.922 0 0 1-.402-.093l3.125-3.125a.927.927 0 0 0 .402.094h10a.93.93 0 0 0 .402-.094l3.125 3.125a.93.93 0 0 1-.402.093H1.875zM18.125.938c.14.001.276.033.402.094l-3.125 3.125A.923.923 0 0 0 15 4.063H5a.926.926 0 0 0-.402.093L1.473 1.031a.927.927 0 0 1 .402-.093h16.25z"/>
        <path d="M14.063 16.563H5.937a.938.938 0 0 0 0 1.875h8.125a.938.938 0 0 0 0-1.875zm0 1.25H5.937a.312.312 0 1 1 0-.625h8.125a.313.313 0 1 1 0 .625zM5.938 3.438h8.125a.937.937 0 0 0 0-1.876H5.937a.937.937 0 1 0 0 1.875zm0-1.25h8.125a.313.313 0 1 1 0 .624H5.937a.312.312 0 1 1 0-.624zM17.5 15a.938.938 0 0 0 .938-.938V5.938a.938.938 0 0 0-1.875 0v8.125A.938.938 0 0 0 17.5 15zm-.313-9.063a.312.312 0 1 1 .625 0v8.125a.313.313 0 1 1-.625 0V5.938zM2.5 5a.937.937 0 0 0-.938.938v8.125a.937.937 0 0 0 1.875 0V5.937A.937.937 0 0 0 2.5 5zm.313 9.063a.313.313 0 1 1-.626 0V5.937a.312.312 0 1 1 .626 0v8.125z"/>
    </g>
</svg>