<svg width="20" height="20" fill="none" xmlns="http://www.w3.org/2000/svg">
    <g fill="#78C081">
        <path d="M10 .625A9.375 9.375 0 1 0 19.375 10 9.385 9.385 0 0 0 10 .625zm0 18.125A8.75 8.75 0 1 1 18.75 10 8.76 8.76 0 0 1 10 18.75z"/>
        <path d="M10 3.125A6.875 6.875 0 1 0 16.875 10 6.882 6.882 0 0 0 10 3.125zm0 13.125A6.25 6.25 0 1 1 16.25 10 6.257 6.257 0 0 1 10 16.25z"/>
        <path d="M11.48 8.854a1.888 1.888 0 0 0-.183-.205c.106-.309.252-.603.434-.874.098-.142.188-.267.268-.38.379-.53.607-.85.607-1.399 0-.792-.936-1.647-2.448-1.647a2.813 2.813 0 0 0-2.272.968 1.879 1.879 0 0 0-.378 1.912l.758 2.06a1.854 1.854 0 0 0-.085.263c-.32.063-.647.084-.973.062a27.51 27.51 0 0 1-.463-.043c-.649-.063-1.04-.1-1.516.174a1.463 1.463 0 0 0-.648 1.183 2.987 2.987 0 0 0 .446 1.76A2.813 2.813 0 0 0 7 14.173c.134.025.27.038.405.039a1.835 1.835 0 0 0 1.44-.668l1.406-1.687c.091-.012.181-.03.27-.056.215.245.396.518.54.811.074.157.137.297.194.422.27.594.433.952.908 1.226.181.1.386.152.593.149.665 0 1.49-.461 2.058-1.445a2.812 2.812 0 0 0 .297-2.452 1.879 1.879 0 0 0-1.466-1.283l-2.166-.374zM10 11.25a1.25 1.25 0 1 1 0-2.5 1.25 1.25 0 0 1 0 2.5zM8.36 5.724a2.195 2.195 0 0 1 1.798-.75c1.174 0 1.823.604 1.823 1.022 0 .334-.11.503-.49 1.036-.083.115-.174.243-.274.388a4.327 4.327 0 0 0-.454.87 1.864 1.864 0 0 0-2.065.364l-.603-1.64a1.27 1.27 0 0 1 .266-1.29zm.006 7.42a1.27 1.27 0 0 1-1.25.414 2.194 2.194 0 0 1-1.548-1.182 2.442 2.442 0 0 1-.364-1.393.888.888 0 0 1 .338-.697c.289-.167.49-.156 1.142-.093.14.014.297.03.473.043.327.024.655.01.978-.04a1.878 1.878 0 0 0 1.35 1.605l-1.12 1.342zm6.157-2.426a2.196 2.196 0 0 1-.25 1.932c-.586 1.016-1.435 1.277-1.796 1.068-.29-.167-.38-.346-.652-.943a28.065 28.065 0 0 0-.2-.431 4.325 4.325 0 0 0-.526-.828 1.857 1.857 0 0 0 .718-1.97l1.722.298a1.27 1.27 0 0 1 .984.874zM10 2.5a.312.312 0 1 0 0-.625.312.312 0 0 0 0 .625zM10 18.125a.312.312 0 1 0 0-.625.312.312 0 0 0 0 .625zM2.188 10.313a.312.312 0 1 0 0-.625.312.312 0 0 0 0 .624zM17.813 10.313a.312.312 0 1 0 0-.625.312.312 0 0 0 0 .624z"/>
    </g>
</svg>