<svg width="352" height="109" fill="none" xmlns="http://www.w3.org/2000/svg">
    <path fill-rule="evenodd" clip-rule="evenodd" d="M123.765 108.835c-13.182.372-27.75.913-36.55-8.31-9.22-9.664-10.507-24.191-6.235-36.53 3.87-11.183 15.148-17.629 26.617-22.352 10.82-4.456 22.639-6.608 33.59-2.443 11.881 4.519 22.008 13.175 25.241 24.82 3.343 12.043.065 25.239-8.768 34.518-8.325 8.745-21.406 9.945-33.895 10.297z" fill="#78C081" fill-opacity=".15"/>
    <path d="M132.961 53.431V27.5h13.274c3.232 0 5.568.691 7.01 2.074 1.467 1.359 2.2 3.557 2.2 6.594 0 3.038-.733 5.248-2.2 6.631-1.442 1.383-3.778 2.075-7.01 2.075h-8.016v8.557h-5.258zm5.258-13.447h7.718c1.491 0 2.573-.296 3.244-.89.696-.617 1.044-1.592 1.044-2.926 0-1.309-.348-2.26-1.044-2.852-.671-.618-1.753-.926-3.244-.926h-7.718v7.594zM165.004 53.765c-2.511 0-4.363-.47-5.556-1.408-1.168-.963-1.752-2.494-1.752-4.593 0-2.15.646-3.68 1.939-4.594 1.292-.939 3.38-1.408 6.264-1.408h5.816c-.099-1.309-.509-2.247-1.23-2.815-.696-.593-1.79-.89-3.281-.89-2.411 0-3.828.853-4.251 2.557h-4.847c.298-2.371 1.181-4.088 2.647-5.15 1.467-1.086 3.679-1.63 6.637-1.63 3.232 0 5.581.667 7.047 2 1.467 1.31 2.2 3.434 2.2 6.373V53.43h-4.922v-1.815c-1.416 1.433-3.654 2.149-6.711 2.149zm-2.386-6.224c0 1.334 1.205 2 3.616 2 1.691 0 2.958-.296 3.804-.888.87-.618 1.429-1.569 1.677-2.853v-.444h-4.511c-3.058 0-4.586.728-4.586 2.185zM180.088 47.282h4.847c.472 1.506 2.051 2.26 4.735 2.26 2.586 0 3.878-.519 3.878-1.556 0-.939-1.628-1.63-4.884-2.075-3.033-.346-5.183-.988-6.451-1.926-1.268-.963-1.901-2.396-1.901-4.297 0-2 .671-3.47 2.013-4.409 1.342-.963 3.468-1.445 6.376-1.445 3.008 0 5.245.52 6.712 1.556 1.491 1.013 2.374 2.655 2.647 4.927h-4.847c-.274-.79-.771-1.358-1.492-1.704-.696-.37-1.727-.555-3.095-.555-2.361 0-3.542.481-3.542 1.444 0 .89 1.492 1.532 4.475 1.927 3.281.469 5.555 1.148 6.823 2.037 1.268.865 1.902 2.235 1.902 4.112 0 2.075-.709 3.63-2.126 4.668-1.392 1.012-3.604 1.519-6.637 1.519-2.983 0-5.232-.519-6.749-1.556-1.516-1.037-2.411-2.68-2.684-4.927zM210.647 53.765c-3.406 0-5.879-.778-7.42-2.334-1.517-1.58-2.275-4.124-2.275-7.631 0-3.483.771-6.014 2.312-7.595 1.541-1.58 4.002-2.37 7.383-2.37 3.082 0 5.394.63 6.935 1.889 1.541 1.235 2.449 3.223 2.722 5.964h-4.847c-.274-1.16-.783-2-1.529-2.519-.746-.519-1.802-.778-3.169-.778-1.715 0-2.971.432-3.766 1.297-.771.84-1.156 2.21-1.156 4.112 0 1.877.385 3.247 1.156 4.112.795.864 2.051 1.296 3.766 1.296 2.635 0 4.201-1.099 4.698-3.297h4.847c-.273 2.742-1.181 4.742-2.722 6.002-1.541 1.234-3.853 1.852-6.935 1.852zM230.328 53.765c-2.51 0-4.362-.47-5.555-1.408-1.169-.963-1.753-2.494-1.753-4.593 0-2.15.647-3.68 1.939-4.594 1.293-.939 3.381-1.408 6.264-1.408h5.817c-.099-1.309-.51-2.247-1.23-2.815-.696-.593-1.79-.89-3.282-.89-2.411 0-3.828.853-4.25 2.557h-4.848c.299-2.371 1.181-4.088 2.648-5.15 1.466-1.086 3.679-1.63 6.637-1.63 3.231 0 5.58.667 7.047 2 1.467 1.31 2.2 3.434 2.2 6.373V53.43h-4.922v-1.815c-1.417 1.433-3.654 2.149-6.712 2.149zm-2.386-6.224c0 1.334 1.206 2 3.617 2 1.69 0 2.958-.296 3.803-.888.87-.618 1.429-1.569 1.678-2.853v-.444h-4.512c-3.057 0-4.586.728-4.586 2.185zM246.233 53.431V25.648h4.921V53.43h-4.921zM263.858 27.5h5.556l8.948 20.449 8.912-20.45h5.593l-11.559 25.932h-5.891L263.858 27.5zM295.753 51.394c-1.566-1.58-2.349-4.112-2.349-7.594 0-3.483.783-6.014 2.349-7.595 1.566-1.58 4.102-2.37 7.607-2.37 3.48 0 5.991.79 7.532 2.37 1.566 1.58 2.349 4.112 2.349 7.595 0 .345-.025.864-.075 1.556h-14.728c.323 2.79 1.976 4.186 4.959 4.186 2.237 0 3.716-.754 4.437-2.26h5.071c-.497 2.396-1.553 4.075-3.169 5.038-1.616.963-3.741 1.445-6.376 1.445-3.505 0-6.041-.79-7.607-2.371zm7.644-13.336c-1.392 0-2.498.284-3.318.852-.821.568-1.343 1.506-1.566 2.815h9.769c-.224-1.309-.746-2.247-1.566-2.815-.796-.568-1.902-.852-3.319-.852zM321.613 53.431h-4.922V34.168h4.922v1.926c1.293-1.506 3.381-2.26 6.264-2.26 2.735 0 4.723.692 5.966 2.075 1.268 1.383 1.902 3.606 1.902 6.668v10.854h-4.922V42.577c0-1.457-.36-2.519-1.081-3.186-.696-.667-1.803-1-3.319-1-1.715 0-2.945.432-3.691 1.297-.746.84-1.119 2.21-1.119 4.112v9.631zM346.37 34.168h5.295v4.556h-5.295v7.41c0 .963.224 1.666.671 2.111.447.42 1.193.63 2.237.63H352v4.556h-2.871c-2.685 0-4.636-.53-5.854-1.593-1.218-1.062-1.827-2.766-1.827-5.112v-8.002h-2.834v-4.556h2.834v-4.186h4.922v4.186z" fill="#495E4C"/>
    <path d="M137.518 81.586h5.27v3.03h-5.27v14.093h-3.248V84.615h-3.049v-3.03h3.049v-.592c0-2.459.542-4.248 1.624-5.367 1.083-1.12 2.818-1.68 5.204-1.68h1.889v3.03h-1.723c-1.304 0-2.254.318-2.851.955-.596.636-.895 1.657-.895 3.062v.593zM152.081 98.709h-3.248V81.586h3.248v2.206c1.127-1.647 3.093-2.47 5.899-2.47h1.492v3.03h-2.42c-1.767 0-3.038.46-3.811 1.383-.774.9-1.16 2.37-1.16 4.412v8.562zM166.173 96.865c-1.37-1.405-2.055-3.644-2.055-6.718 0-3.073.685-5.312 2.055-6.717 1.392-1.405 3.635-2.108 6.728-2.108 3.071 0 5.281.703 6.629 2.108 1.37 1.405 2.055 3.644 2.055 6.717 0 .11-.011.275-.034.494v.494h-14.119c.111 1.712.608 2.975 1.492 3.787.906.812 2.242 1.218 4.01 1.218 2.585 0 4.231-.878 4.939-2.634h3.38c-.464 2.02-1.414 3.436-2.85 4.248-1.414.812-3.248 1.218-5.502 1.218-3.093 0-5.336-.702-6.728-2.107zm6.761-12.71c-1.657 0-2.939.361-3.845 1.086-.883.702-1.414 1.855-1.59 3.457h10.838c-.177-1.624-.708-2.788-1.591-3.49-.862-.703-2.133-1.054-3.812-1.054zM187.29 93.506h3.215c.287.922.84 1.592 1.657 2.009.818.417 1.978.625 3.48.625 2.939 0 4.408-.702 4.408-2.107 0-.637-.397-1.142-1.193-1.515-.795-.373-2.077-.691-3.845-.955-2.717-.351-4.64-.922-5.767-1.712-1.104-.812-1.657-1.998-1.657-3.556 0-1.669.586-2.91 1.757-3.721 1.171-.835 3.016-1.252 5.535-1.252s4.419.44 5.701 1.317c1.281.857 2.077 2.24 2.386 4.15h-3.215c-.287-.922-.818-1.592-1.591-2.01-.773-.416-1.889-.625-3.347-.625-2.718 0-4.077.67-4.077 2.009 0 .615.387 1.109 1.16 1.482.773.35 2 .658 3.679.922 2.85.439 4.828 1.032 5.933 1.778 1.127.746 1.69 1.888 1.69 3.424 0 3.469-2.552 5.203-7.656 5.203-2.541 0-4.475-.439-5.8-1.317-1.326-.878-2.144-2.261-2.453-4.149zM209.837 74.012h3.248v9.879c1.193-1.713 3.281-2.569 6.264-2.569 2.497 0 4.32.604 5.468 1.811 1.149 1.208 1.724 3.129 1.724 5.763v9.813h-3.215v-9.813c0-1.58-.398-2.733-1.193-3.458-.796-.724-2.033-1.086-3.712-1.086-1.878 0-3.237.46-4.077 1.383-.84.9-1.259 2.37-1.259 4.412v8.562h-3.248V74.012zM251.692 98.972c-2.298 0-3.977-.406-5.038-1.218-1.06-.812-1.591-2.119-1.591-3.919 0-1.866.586-3.194 1.757-3.984 1.193-.812 3.104-1.219 5.734-1.219h5.866c0-1.558-.397-2.689-1.193-3.391-.795-.725-2.066-1.087-3.811-1.087-1.392 0-2.464.23-3.215.692-.752.439-1.26 1.152-1.525 2.14h-3.215c.309-1.976 1.105-3.414 2.386-4.314 1.282-.9 3.182-1.35 5.701-1.35 2.828 0 4.883.582 6.165 1.745 1.304 1.142 1.955 2.975 1.955 5.5v10.142h-3.248v-2.206c-1.303 1.646-3.546 2.47-6.728 2.47zm-3.381-5.268c0 .856.332 1.481.995 1.877.685.373 1.734.56 3.148.56 1.879 0 3.282-.34 4.21-1.021.95-.681 1.535-1.768 1.756-3.26v-.79h-5.038c-3.38 0-5.071.877-5.071 2.634zM269.157 98.709V81.586h3.248v17.123h-3.248zm-.033-20.45c-.331-.328-.497-.877-.497-1.646 0-.768.166-1.317.497-1.646.332-.33.884-.494 1.657-.494.774 0 1.326.165 1.658.494.331.33.497.878.497 1.646 0 .769-.166 1.318-.497 1.647-.332.33-.884.494-1.658.494-.773 0-1.325-.165-1.657-.494zM283.213 98.709h-3.248V81.586h3.248v2.206c1.127-1.647 3.094-2.47 5.9-2.47h1.491v3.03h-2.419c-1.768 0-3.038.46-3.812 1.383-.773.9-1.16 2.37-1.16 4.412v8.562z" fill="#78C081"/>
    <path fill-rule="evenodd" clip-rule="evenodd" d="M4.532 42.035C.325 56.947-.638 72.575.364 87.922c-.453 4.878 2.215 9.589 5.762 12.95 5.191 4.889 15.417 4.223 22.13 3.534 12.224-1.16 17.661-12.25 18.377-22.935.548-18.469.683-37.875.643-56.376a92.83 92.83 0 0 1-.006-1.649c.005-2.438.01-5.16-.738-7.323-1.818-6.038-7.473-8.207-13.157-7.047-1.148.363-2.255.84-3.3 1.426a52.328 52.328 0 0 0-9.51 6.57c-5.812 4.97-10.434 11.11-13.544 17.992-.307.623-.619 1.473-.907 2.26-.164.447-.32.872-.464 1.225-.297.73-.6 1.752-.865 2.645-.09.3-.175.586-.253.84zM.364 87.922c1.773-15.618 4.268-31.17 9.946-45.871 3.08-7.745 8.209-14.568 14.87-19.786.61-.51 1.516-1.17 2.254-1.71l.42-.306s4.576-3.882 7.054-4.093c2.478-.211 3.837-.038 4.397 2.629l.173 1.274.04 1.41c-.04 6.39-.068 18.202 0 24.707.083 9.383.195 18.767.419 28.145l.151 6.84a30.19 30.19 0 0 1-.75 6.338c-1.074 4.927-3.804 9.725-8.755 11.665-3.188 1.133-6.65 1.578-10.007 1.968-3.933.336-8.05.537-11.68-1.046-4.437-2.57-8.017-7.02-8.532-12.164z" fill="#78C081"/>
    <path d="M99.939 46.151c2.149 5.29 6.064 13.559 7.417 23.493-.97-18.154-2.232-18.203-2.857-20.987a90.497 90.497 0 0 0-4.003-13.097C95.725 24.566 87.174 15.518 76.3 9.956a9.722 9.722 0 0 0-2.974-1.03c-.598-.033-.945-.131-1.778-.131-5.674-.315-9.968 3.293-10.946 8.589-.514 2.295-.375 5.11-.375 7.373-.067 12.279-.095 27.514.112 39.863.084 4.438.14 8.876.263 13.314-.02 2.397.168 4.79.559 7.157 1.873 10.748 8.123 19.055 20.064 19.532 5.938.418 12.272.662 17.795-1.953 4.333-2.328 6.097-6.26 7.366-10.6.83-2.839 1.954-5.742 6.676-10.382-4.722 2.784-6.285 4.184-9.444 12.062-4.232 7.01-7.27 7.867-15.175 7.385a58.628 58.628 0 0 1-6.563-.869c-1.968-.385-4.12-.754-5.882-1.681-5.428-2.697-7.67-8.752-8.302-14.373a37.478 37.478 0 0 1-.15-6.131c.19-7.726.413-18.81.413-26.64 0-7.83.117-19.012 0-26.727.022-2.284-.475-5.778.727-7.71.85-1.389 2.238-1.82 4.534-.754 9.706 4.595 17.636 12.092 22.625 21.388 1.453 2.911 3.164 6.225 4.094 8.513zM54.205 21.848a1.597 1.597 0 0 0-.731-2.145 1.617 1.617 0 0 0-2.16.726L43.7 35.739a1.597 1.597 0 0 0 .73 2.146 1.617 1.617 0 0 0 2.16-.727l7.615-15.31z" fill="#78C081"/>
    <path d="M52.295 21.848a1.597 1.597 0 0 1 .731-2.145 1.617 1.617 0 0 1 2.16.726l7.614 15.31a1.597 1.597 0 0 1-.73 2.146 1.616 1.616 0 0 1-2.16-.727l-7.615-15.31z" fill="#78C081"/>
    <path d="M51.581 1.601c0-.884.722-1.601 1.612-1.601.89 0 1.612.717 1.612 1.601v20.29c0 .885-.722 1.602-1.612 1.602-.89 0-1.612-.717-1.612-1.601V1.602zM101.39 98.474a63.667 63.667 0 0 0-1.498-2.714 89.391 89.391 0 0 0-1.568-2.616c-.542-.869-1.112-1.698-1.667-2.524-.144-.216-.307-.41-.461-.618-.154-.208-.322-.403-.49-.605-.17-.203-.352-.393-.541-.602-.09-.101-.188-.197-.295-.288-.101-.098-.208-.196-.305-.303.655.133 1.27.357 1.814.662.276.147.538.31.784.485.251.172.49.355.713.549.884.762 1.623 1.62 2.195 2.548.578.92 1.004 1.895 1.27 2.903a5.909 5.909 0 0 1 .049 3.123z" fill="#78C081"/>
    <path d="M100.919 88.164a6.764 6.764 0 0 0-2.155-2.763 10.155 10.155 0 0 0-3.114-1.626 17.963 17.963 0 0 0-3.534-.71c-1.217-.137-2.466-.201-3.73-.264l1.054-1.047c.204 1.528.442 3.047.61 4.58.101.763.173 1.536.298 2.243.049.363.126.707.218 1.045a7.1 7.1 0 0 0 .361.992 8.206 8.206 0 0 0 2.749 3.307 9.827 9.827 0 0 0 4.358 1.734 8.624 8.624 0 0 1-4.95-.89c-1.566-.79-2.844-1.995-3.676-3.465a8.467 8.467 0 0 1-.53-1.17 8.633 8.633 0 0 1-.338-1.199c-.182-.821-.283-1.58-.403-2.322-.24-1.538-.443-3.06-.647-4.589l-.15-1.136 1.21.089c1.299.09 2.591.244 3.87.463 1.317.215 2.595.595 3.798 1.128a9.346 9.346 0 0 1 3.165 2.285 5.812 5.812 0 0 1 1.536 3.315zM103.12 87.57a6.625 6.625 0 0 1-.859-2.235 9.597 9.597 0 0 1-.148-2.41c.139-1.592.53-3.117 1.154-4.502a14.795 14.795 0 0 1 2.378-3.809 8.916 8.916 0 0 1 1.689-1.486 11.295 11.295 0 0 1 1.925-1.004c.656-.284 1.323-.496 1.981-.698.657-.2 1.304-.376 1.963-.555 1.304-.338 2.576-.674 3.778-1.107a11.417 11.417 0 0 0 3.237-1.731c1.041-.78 1.881-1.847 2.452-3.114.427-1.056.784-2.172 1.177-3.255-.109.316.251 1.43.312 1.811.329 2.034.471 4.082.423 6.11a31.97 31.97 0 0 1-.288 3.952l-.08.503-.279 1.43c-.13.626-.272 1.255-.445 1.887a12.652 12.652 0 0 1-1.591 3.55 12.276 12.276 0 0 1-1.145 1.466c-.424.441-.847.845-1.282 1.23-.872.773-1.8 1.466-2.776 2.072a18.819 18.819 0 0 1-6.288 2.493 25.053 25.053 0 0 0 5.611-3.549 23.648 23.648 0 0 0 2.402-2.303 14.755 14.755 0 0 0 1.969-2.638 11.18 11.18 0 0 0 1.113-3.135c.122-.57.226-1.156.318-1.76l.132-.914.068-.461.054-.427c.112-1.2.161-2.413.147-3.633-.002-1.24.709-.045-.493.918a12.35 12.35 0 0 1-3.892 2.037c-1.341.442-2.689.727-3.997 1.013-1.308.287-2.617.552-3.815.938a9.36 9.36 0 0 0-1.702.72 7.2 7.2 0 0 0-1.488 1.094 13.464 13.464 0 0 0-2.459 3.132 13.104 13.104 0 0 0-1.55 3.906c-.35 1.436-.246 3.01.294 4.465z" fill="#78C081"/>
</svg>