<svg xmlns="http://www.w3.org/2000/svg" width="32" height="32">
    <path d="M1.597 2.165C-1.953 7.233.43 15.323 7.807 23.25c5.242 5.633 10.933 8.695 16.22 8.728 8.255.051 10.587-6.33 3.738-10.228l-3.736-2.126-2.482 2.331-2.482 2.332-3.463-2.641c-1.904-1.453-4.445-4.021-5.646-5.708l-2.184-3.067 2.302-2.45 2.302-2.45-2.126-3.736C7.636-.357 3.977-1.233 1.597 2.165m.96 1.058C.439 6.245.608 8.621 3.358 14.5 7.183 22.677 17.797 31 24.4 31c2.673 0 6.6-2.652 6.6-4.458 0-.739-1.53-2.247-3.4-3.351l-3.4-2.006-2.128 2.448c-2.104 2.419-2.163 2.427-5.212.657C12.758 21.909 7 15.13 7 12.68c0-1.078.779-2.529 1.73-3.225 1.637-1.197 1.638-1.46.017-4.86C6.782.474 4.791.033 2.557 3.223" fill="#577f5e" fill-rule="evenodd"/>
    <path d="M2.557 3.223C.439 6.245.608 8.621 3.358 14.5 7.183 22.677 17.797 31 24.4 31c2.673 0 6.6-2.652 6.6-4.458 0-.739-1.53-2.247-3.4-3.351l-3.4-2.006-2.128 2.448c-2.104 2.419-2.163 2.427-5.212.657C12.758 21.909 7 15.13 7 12.68c0-1.078.779-2.529 1.73-3.225 1.637-1.197 1.638-1.46.017-4.86C6.782.474 4.791.033 2.557 3.223" fill="#7bc283" fill-rule="evenodd"/>
</svg>