<svg width="935" height="1253" fill="none" xmlns="http://www.w3.org/2000/svg">

<path d="M87 210.315C99.0398 221.653 166.71 241.285 174.743 248.484C187.13 259.585 200.137 267.579 217.118 272.968C247.531 282.62 286.883 267.44 305.436 252.533C318.089 241.1 320.963 230.839 320.963 220.577C320.963 207.236 305.436 198 293.863 198C282.29 198 271.57 198 261.425 210.315C244.672 230.652 264.659 256.466 288.957 261.011C320.562 266.921 339.785 273.938 369.414 264.02C396.065 255.098 414.901 247.459 439.494 240.115C457.124 234.851 483.036 241.448 495.393 244.974C537.963 257.123 569.281 241.559 614 273.562" stroke="#5CCD6A" stroke-linecap="round" stroke-dasharray="8 8"/>
<path d="M316.233 556.972C328.34 579.377 407.946 558.876 430.227 593.809C442.789 622.189 467.247 636.777 481.823 638.636C500.041 640.96 522.214 639.183 540.767 638.015" stroke="#5CCD6A" stroke-linecap="round" stroke-dasharray="8 8"/>
<path d="M324 865C332.174 859.826 352.016 863.893 364.83 860.942C375.013 857.841 380.57 856.47 388.539 846.795C394.1 837.368 399.298 828.75 397.61 817.872C396.198 808.767 369.056 800.058 362.205 811.062C358.677 812.326 359.365 820.551 360.395 822.876C362.837 828.384 365.889 832.453 372.25 836.002C386.606 844.011 417.245 849.061 436.296 836.002C554.786 754.78 652.449 784.584 687.755 788.748C711.465 791.544 730.883 816.79 727.823 829.749C724.118 845.436 704.547 852.759 690.058 852.759C672.142 852.759 653.501 841.625 653.501 822.803C653.501 801.374 680.847 791.893 706.892 788.748C727.382 786.273 739.647 786.616 759.921 790.06C814.406 799.316 886.5 788.748 911 726" stroke="#5CCD6A" stroke-linecap="round" stroke-dasharray="8 8"/>
<path d="M889 1069C868 1088 841.1 1095.02 826.849 1098.59C806.718 1102.53 790.289 1106 774.013 1106C751.341 1106 730.489 1104.34 708.459 1099.95C688.551 1095.99 659.965 1078.54 639 1069" stroke="#5CCD6A" stroke-linecap="round" stroke-dasharray="8 8"/>
<path d="M528 1009C502.17 993.956 488.161 988.483 457.787 982.441C404.754 971.891 365.659 1001.69 311.233 1001.39C270.206 1001.16 205.042 968.921 191 941" stroke="#5CCD6A" stroke-linecap="round" stroke-dasharray="8 8"/>
<path d="M802.928 419.234C785.438 438.1 757.995 443.925 741.44 444.937C695.449 452.318 654.615 425.552 615.499 405.995C569.982 393.231 547.433 430.445 524.158 442.382C500.883 454.32 446.378 443.496 415.567 418.095" stroke="#5CCD6A" stroke-linecap="round" stroke-dasharray="8 8"/>
<path d="M298 413.7C310.888 402.055 315.949 394.976 336.089 389.31C356.229 383.645 366.416 387.908 378.09 395.218" stroke="#5CCD6A" stroke-linecap="round" stroke-dasharray="8 8"/>

</svg>

