<svg width="1440" height="167" fill="none" xmlns="http://www.w3.org/2000/svg"><path d="M-10 48c12.82 7.75 55.608 26.158 124.208 37.784 85.751 14.532 129.925-.582 152.792-3.488m0 0L256.5 77.5m10.5 4.796-8 8.204M783 93.496c27 14.178 70 31.445 132.5 32.441 94 1.497 130-23.957 149.5-33.144m0 0L1054.5 91m10.5 1.793-6 9.187M383.5 77.502c23.5-11 63-29 130.708-33C593 39.846 623 59.002 667 76.002m0 0-5.5-8.502M667 76 657 80M1181 59c18-13.21 63.5-35.499 134-48.5 25.87-4.771 91.5-11.998 153-.999m0 0L1462.5 1m5.5 8.501-10 3.999" stroke="#78C081" stroke-width="2" stroke-linecap="round" stroke-linejoin="round"/><circle cx="325" cy="74" r="50" fill="#D9FADD"/><circle cx="725" cy="69" r="50" fill="#D9FADD"/><circle cx="1123" cy="69" r="50" fill="#D9FADD"/><path d="M251.792 166h-8.088v-16.008h7.872c1.424 0 2.536.392 3.336 1.176.816.768 1.224 1.736 1.224 2.904 0 .96-.272 1.776-.816 2.448-.528.656-1.184 1.064-1.968 1.224.864.128 1.592.576 2.184 1.344.608.752.912 1.616.912 2.592 0 1.28-.416 2.32-1.248 3.12-.816.8-1.952 1.2-3.408 1.2zm-.792-9.384c.704 0 1.256-.192 1.656-.576.4-.384.6-.88.6-1.488 0-.624-.2-1.128-.6-1.512-.4-.384-.952-.576-1.656-.576h-4.488v4.152H251zm.12 6.912c.768 0 1.368-.192 1.8-.576.432-.4.648-.952.648-1.656 0-.624-.216-1.144-.648-1.56-.432-.432-1.032-.648-1.8-.648h-4.608v4.44h4.608zM268.795 166h-2.52v-1.248c-.896 1.024-2.144 1.536-3.744 1.536a4.292 4.292 0 0 1-2.808-1.008c-.816-.688-1.224-1.632-1.224-2.832 0-1.232.4-2.168 1.2-2.808.816-.64 1.76-.96 2.832-.96 1.648 0 2.896.496 3.744 1.488v-1.728c0-.672-.248-1.2-.744-1.584-.496-.384-1.152-.576-1.969-.576-1.295 0-2.439.488-3.431 1.464l-1.032-1.752c1.312-1.248 2.936-1.872 4.872-1.872 1.424 0 2.584.336 3.48 1.008.896.672 1.344 1.736 1.344 3.192V166zm-5.28-1.44c1.264 0 2.184-.4 2.76-1.2v-1.752c-.576-.8-1.496-1.2-2.76-1.2-.72 0-1.312.192-1.776.576-.464.384-.696.888-.696 1.512s.232 1.128.696 1.512c.464.368 1.056.552 1.776.552zm21.747-10.152h2.52V166h-15.72v-11.592h2.52v9.384h4.08v-9.384h2.52v9.384h4.08v-9.384zm11.136 11.88c-1.76 0-3.216-.56-4.368-1.68-1.136-1.136-1.704-2.608-1.704-4.416 0-1.696.552-3.128 1.656-4.296 1.12-1.184 2.528-1.776 4.224-1.776 1.712 0 3.088.592 4.128 1.776 1.056 1.184 1.584 2.696 1.584 4.536v.6h-8.952c.096.912.472 1.672 1.128 2.28.656.608 1.512.912 2.568.912.592 0 1.184-.112 1.776-.336.608-.224 1.112-.536 1.512-.936l1.152 1.656c-1.168 1.12-2.736 1.68-4.704 1.68zm3.072-7.032c-.032-.8-.328-1.512-.888-2.136-.544-.624-1.336-.936-2.376-.936-.992 0-1.768.312-2.328.936a3.472 3.472 0 0 0-.936 2.136h6.528zM312.25 166h-3.168l4.92-6.336-4.824-5.256h3.12l4.152 4.536v-4.536h2.52v4.536l4.152-4.536h3.12l-4.824 5.256 4.92 6.336h-3.168l-3.552-4.776-.648.672V166h-2.52v-4.104l-.648-.672L312.25 166zm21.109.288c-1.76 0-3.216-.56-4.368-1.68-1.136-1.136-1.704-2.608-1.704-4.416 0-1.696.552-3.128 1.656-4.296 1.12-1.184 2.528-1.776 4.224-1.776 1.712 0 3.088.592 4.128 1.776 1.056 1.184 1.584 2.696 1.584 4.536v.6h-8.952c.096.912.472 1.672 1.128 2.28.656.608 1.512.912 2.568.912.592 0 1.184-.112 1.776-.336.608-.224 1.112-.536 1.512-.936l1.152 1.656c-1.168 1.12-2.736 1.68-4.704 1.68zm3.072-7.032c-.032-.8-.328-1.512-.888-2.136-.544-.624-1.336-.936-2.376-.936-.992 0-1.768.312-2.328.936a3.472 3.472 0 0 0-.936 2.136h6.528zm3.735 7.032v-2.064c.496 0 .888-.32 1.176-.96.304-.64.552-1.712.744-3.216l.696-5.64h8.952V166h-2.52v-9.384h-4.2l-.408 3.72c-.224 2.08-.696 3.592-1.416 4.536-.72.944-1.728 1.416-3.024 1.416zm24.441-.288h-2.52v-1.248c-.896 1.024-2.144 1.536-3.744 1.536a4.292 4.292 0 0 1-2.808-1.008c-.816-.688-1.224-1.632-1.224-2.832 0-1.232.4-2.168 1.2-2.808.816-.64 1.76-.96 2.832-.96 1.648 0 2.896.496 3.744 1.488v-1.728c0-.672-.248-1.2-.744-1.584-.496-.384-1.152-.576-1.968-.576-1.296 0-2.44.488-3.432 1.464l-1.032-1.752c1.312-1.248 2.936-1.872 4.872-1.872 1.424 0 2.584.336 3.48 1.008.896.672 1.344 1.736 1.344 3.192V166zm-5.28-1.44c1.264 0 2.184-.4 2.76-1.2v-1.752c-.576-.8-1.496-1.2-2.76-1.2-.72 0-1.312.192-1.776.576-.464.384-.696.888-.696 1.512s.232 1.128.696 1.512c.464.368 1.056.552 1.776.552zm11.067 1.44h-2.52v-11.592h2.52v4.56h5.328v-4.56h2.52V166h-2.52v-4.824h-5.328V166zm13.545 0h-2.424v-11.592h2.52v7.8l5.328-7.8h2.52V166h-2.52v-8.016L383.939 166zm16.568.288c-1.76 0-3.216-.56-4.368-1.68-1.136-1.136-1.704-2.608-1.704-4.416 0-1.696.552-3.128 1.656-4.296 1.12-1.184 2.528-1.776 4.224-1.776 1.712 0 3.088.592 4.128 1.776 1.056 1.184 1.584 2.696 1.584 4.536v.6h-8.952c.096.912.472 1.672 1.128 2.28.656.608 1.512.912 2.568.912.592 0 1.184-.112 1.776-.336.608-.224 1.112-.536 1.512-.936l1.152 1.656c-1.168 1.12-2.736 1.68-4.704 1.68zm3.072-7.032c-.032-.8-.328-1.512-.888-2.136-.544-.624-1.336-.936-2.376-.936-.992 0-1.768.312-2.328.936a3.472 3.472 0 0 0-.936 2.136h6.528zM691.912 161.288c-1.376 0-2.64-.24-3.792-.72-1.136-.496-1.984-1.12-2.544-1.872l1.512-1.848c.512.592 1.208 1.064 2.088 1.416.88.352 1.76.528 2.64.528 1.136 0 2.024-.216 2.664-.648.656-.448.984-1.048.984-1.8 0-1.504-1.288-2.256-3.864-2.256h-3.216v-2.472h3.216c1.072 0 1.936-.176 2.592-.528.672-.352 1.008-.88 1.008-1.584 0-.72-.336-1.272-1.008-1.656-.672-.4-1.52-.6-2.544-.6-1.76 0-3.232.592-4.416 1.776l-1.44-1.752c.64-.752 1.496-1.36 2.568-1.824 1.088-.464 2.272-.696 3.552-.696 1.776 0 3.232.392 4.368 1.176 1.152.784 1.728 1.832 1.728 3.144 0 .992-.352 1.816-1.056 2.472a4.645 4.645 0 0 1-2.424 1.2c.912.08 1.76.464 2.544 1.152s1.176 1.6 1.176 2.736c0 1.36-.6 2.48-1.8 3.36-1.184.864-2.696 1.296-4.536 1.296zm18.687-.288h-2.52v-1.248c-.896 1.024-2.144 1.536-3.744 1.536a4.292 4.292 0 0 1-2.808-1.008c-.816-.688-1.224-1.632-1.224-2.832 0-1.232.4-2.168 1.2-2.808.816-.64 1.76-.96 2.832-.96 1.648 0 2.896.496 3.744 1.488v-1.728c0-.672-.248-1.2-.744-1.584-.496-.384-1.152-.576-1.968-.576-1.296 0-2.44.488-3.432 1.464l-1.032-1.752c1.312-1.248 2.936-1.872 4.872-1.872 1.424 0 2.584.336 3.48 1.008.896.672 1.344 1.736 1.344 3.192V161zm-5.28-1.44c1.264 0 2.184-.4 2.76-1.2v-1.752c-.576-.8-1.496-1.2-2.76-1.2-.72 0-1.312.192-1.776.576-.464.384-.696.888-.696 1.512s.232 1.128.696 1.512c.464.368 1.056.552 1.776.552zm11.019 1.44h-2.88l2.856-4.32a3.426 3.426 0 0 1-1.968-1.2c-.496-.624-.744-1.416-.744-2.376 0-1.04.336-1.912 1.008-2.616.688-.72 1.632-1.08 2.832-1.08h6.624V161h-2.52v-4.2h-2.664l-2.544 4.2zm1.416-6.408h3.792v-2.976h-3.792c-.48 0-.864.144-1.152.432-.288.272-.432.624-.432 1.056 0 .448.136.808.408 1.08.288.272.68.408 1.176.408zm16.67 6.408h-7.104v-11.592h6.936c1.072 0 1.912.28 2.52.84.608.56.912 1.272.912 2.136 0 .672-.184 1.24-.552 1.704a2.677 2.677 0 0 1-1.392.936c.624.144 1.144.488 1.56 1.032a2.83 2.83 0 0 1 .624 1.8c0 .928-.312 1.688-.936 2.28-.608.576-1.464.864-2.568.864zm-.528-2.208c.448 0 .8-.112 1.056-.336.256-.24.384-.56.384-.96 0-.368-.128-.68-.384-.936s-.608-.384-1.056-.384h-4.056v2.616h4.056zm-.072-4.824c.4 0 .712-.104.936-.312.24-.224.36-.504.36-.84 0-.368-.12-.656-.36-.864-.224-.224-.536-.336-.936-.336h-3.984v2.352h3.984zM751.902 161h-3.168l-3.552-4.776-1.608 1.656V161h-2.52v-11.592h2.52V155l5.112-5.592h3.12l-4.824 5.256 4.92 6.336zm11.385 0h-2.52v-1.248c-.896 1.024-2.144 1.536-3.744 1.536a4.292 4.292 0 0 1-2.808-1.008c-.816-.688-1.224-1.632-1.224-2.832 0-1.232.4-2.168 1.2-2.808.816-.64 1.76-.96 2.832-.96 1.648 0 2.896.496 3.744 1.488v-1.728c0-.672-.248-1.2-.744-1.584-.496-.384-1.152-.576-1.968-.576-1.296 0-2.44.488-3.432 1.464l-1.032-1.752c1.312-1.248 2.936-1.872 4.872-1.872 1.424 0 2.584.336 3.48 1.008.896.672 1.344 1.736 1.344 3.192V161zm-5.28-1.44c1.264 0 2.184-.4 2.76-1.2v-1.752c-.576-.8-1.496-1.2-2.76-1.2-.72 0-1.312.192-1.776.576-.464.384-.696.888-.696 1.512s.232 1.128.696 1.512c.464.368 1.056.552 1.776.552zM1060.51 161h-2.81v-16.008h7.04c1.61 0 2.88.48 3.81 1.44.95.96 1.42 2.152 1.42 3.576 0 1.408-.47 2.6-1.42 3.576-.93.96-2.2 1.44-3.81 1.44h-4.23V161zm3.84-8.448c.8 0 1.46-.232 1.97-.696.51-.464.77-1.08.77-1.848s-.26-1.384-.77-1.848c-.51-.464-1.17-.696-1.97-.696h-3.84v5.088h3.84zm12.88 8.736c-1.76 0-3.21-.56-4.36-1.68-1.14-1.136-1.71-2.608-1.71-4.416 0-1.696.55-3.128 1.66-4.296 1.12-1.184 2.53-1.776 4.22-1.776 1.71 0 3.09.592 4.13 1.776 1.06 1.184 1.58 2.696 1.58 4.536v.6h-8.95c.1.912.47 1.672 1.13 2.28.66.608 1.51.912 2.57.912.59 0 1.18-.112 1.77-.336.61-.224 1.12-.536 1.52-.936l1.15 1.656c-1.17 1.12-2.74 1.68-4.71 1.68zm3.08-7.032c-.04-.8-.33-1.512-.89-2.136-.55-.624-1.34-.936-2.38-.936-.99 0-1.77.312-2.33.936-.56.608-.87 1.32-.93 2.136h6.53zm14.53 6.744h-2.52v-1.248c-.89 1.024-2.14 1.536-3.74 1.536-1.06 0-1.99-.336-2.81-1.008-.82-.688-1.22-1.632-1.22-2.832 0-1.232.4-2.168 1.2-2.808.81-.64 1.76-.96 2.83-.96 1.65 0 2.89.496 3.74 1.488v-1.728c0-.672-.25-1.2-.74-1.584-.5-.384-1.15-.576-1.97-.576-1.3 0-2.44.488-3.43 1.464l-1.03-1.752c1.31-1.248 2.93-1.872 4.87-1.872 1.42 0 2.58.336 3.48 1.008.89.672 1.34 1.736 1.34 3.192V161zm-5.28-1.44c1.27 0 2.19-.4 2.76-1.2v-1.752c-.57-.8-1.49-1.2-2.76-1.2-.72 0-1.31.192-1.77.576-.47.384-.7.888-.7 1.512s.23 1.128.7 1.512c.46.368 1.05.552 1.77.552zm7.35 1.728v-2.064c.49 0 .89-.32 1.17-.96.31-.64.56-1.712.75-3.216l.69-5.64h8.96V161h-2.52v-9.384h-4.2l-.41 3.72c-.23 2.08-.7 3.592-1.42 4.536-.72.944-1.73 1.416-3.02 1.416zm17.26-.288h-2.42v-11.592h2.52v7.8l5.33-7.8h2.52V161h-2.52v-8.016l-5.43 8.016zm15.4.288c-2.28 0-4.05-.624-5.33-1.872l1.17-1.608c1.06.944 2.44 1.416 4.16 1.416.88 0 1.56-.136 2.06-.408.51-.288.77-.672.77-1.152 0-1.008-1.02-1.512-3.05-1.512h-2.47v-2.016h2.47c.88 0 1.57-.128 2.06-.384.52-.256.77-.632.77-1.128 0-.416-.26-.76-.79-1.032s-1.19-.408-1.99-.408c-1.55 0-2.79.464-3.72 1.392l-1.25-1.536c1.23-1.264 2.85-1.896 4.85-1.896 1.71-.016 3.05.264 4.03.84.99.56 1.49 1.328 1.49 2.304 0 .736-.31 1.36-.94 1.872-.61.496-1.32.8-2.13.912a4.5 4.5 0 0 1 2.25.816c.71.48 1.06 1.136 1.06 1.968 0 1.008-.5 1.832-1.49 2.472-.98.64-2.3.96-3.98.96zm17.61-.288h-2.52v-1.248c-.9 1.024-2.15 1.536-3.75 1.536a4.27 4.27 0 0 1-2.8-1.008c-.82-.688-1.23-1.632-1.23-2.832 0-1.232.4-2.168 1.2-2.808.82-.64 1.76-.96 2.83-.96 1.65 0 2.9.496 3.75 1.488v-1.728c0-.672-.25-1.2-.75-1.584-.49-.384-1.15-.576-1.96-.576-1.3 0-2.44.488-3.44 1.464l-1.03-1.752c1.31-1.248 2.94-1.872 4.87-1.872 1.43 0 2.59.336 3.48 1.008.9.672 1.35 1.736 1.35 3.192V161zm-5.28-1.44c1.26 0 2.18-.4 2.76-1.2v-1.752c-.58-.8-1.5-1.2-2.76-1.2-.72 0-1.31.192-1.78.576-.46.384-.69.888-.69 1.512s.23 1.128.69 1.512c.47.368 1.06.552 1.78.552zm17.66 4.392V161h-9.12v-11.592h2.52v9.384h5.33v-9.384h2.52v9.384h1.27v5.16h-2.52zm7.02-2.952h-2.42v-11.592h2.52v7.8l5.32-7.8h2.52V161H1172v-8.016l-5.42 8.016zm13.69 0h-2.88l2.85-4.32a3.4 3.4 0 0 1-1.96-1.2c-.5-.624-.75-1.416-.75-2.376 0-1.04.34-1.912 1.01-2.616.69-.72 1.63-1.08 2.83-1.08h6.63V161h-2.52v-4.2h-2.67l-2.54 4.2zm1.41-6.408h3.8v-2.976h-3.8c-.48 0-.86.144-1.15.432-.29.272-.43.624-.43 1.056 0 .448.14.808.41 1.08.29.272.68.408 1.17.408z" fill="#495E4C"/><path d="M745.101 50.778V93.8c0 1.758-1.438 3.184-3.211 3.184h-33.78c-1.773 0-3.211-1.426-3.211-3.184V50.778c0-1.759 1.438-3.185 3.211-3.185h7.403v4.46c0 .658.539 1.193 1.204 1.193h16.566c.664 0 1.203-.535 1.203-1.194v-4.459h7.404c1.773 0 3.211 1.426 3.211 3.185z" fill="#D9FADD"/><path d="M734.487 46.59v5.464c0 .66-.539 1.193-1.204 1.193h-16.566a1.199 1.199 0 0 1-1.204-1.193V46.59c0-.66.539-1.194 1.204-1.194h4.555v-.011c0-2.538 2.626-4.482 5.337-3.338 1.318.557 2.107 1.917 2.107 3.338v.011h4.567c.665 0 1.204.535 1.204 1.194z" fill="#D9FADD"/><path d="M733.284 44.505h-3.749c-.919-4.95-8.111-4.834-9.074 0h-3.745a2.096 2.096 0 0 0-2.102 2.085v.112h-6.504c-2.266 0-4.11 1.828-4.11 4.075v43.024c0 2.247 1.844 4.075 4.11 4.075h33.78c2.266 0 4.11-1.828 4.11-4.075V50.777c0-2.247-1.844-4.075-4.11-4.075h-6.504v-.112c0-1.15-.943-2.085-2.102-2.085zm-16.568 1.783h4.556c.497 0 .899-.41.899-.903 0-3.566 5.646-3.798 5.646.011 0 .493.403.892.9.892h4.567c.167 0 .304.135.304.302l-.001 5.462a.303.303 0 0 1-.304.302h-16.566a.303.303 0 0 1-.304-.302l-.001-5.462c0-.167.137-.302.304-.302zm0 7.85h16.568a2.096 2.096 0 0 0 2.102-2.084v-.002l4.552-.03c.384 0 .696.31.696.691v39.152c0 .38-.312.69-.696.69h-29.876a.694.694 0 0 1-.696-.69V52.713c0-.38.312-.69.696-.69h4.552v.031c0 1.15.943 2.085 2.102 2.085zm25.174-5.653a2.305 2.305 0 0 1 2.312 2.292v43.024a2.305 2.305 0 0 1-2.312 2.293h-33.78a2.305 2.305 0 0 1-2.312-2.293V50.777a2.305 2.305 0 0 1 2.312-2.292h6.504v1.755h-4.552c-1.375 0-2.494 1.11-2.494 2.473v39.152c0 1.364 1.119 2.473 2.494 2.473h29.876c1.375 0 2.494-1.11 2.494-2.473V52.713c0-1.364-1.119-2.473-2.494-2.473h-4.552v-1.755h6.504z" fill="#5CCD6A"/><path d="M725.638 45.01c.333-.35.362-.866 0-1.266-.333-.33-.935-.33-1.276 0-.352.386-.341.91 0 1.266a.919.919 0 0 0 1.276 0z" fill="#5CCD6A"/><path d="M726.002 60.798h9.487c.496 0 .899-.399.899-.891a.896.896 0 0 0-.899-.892h-9.487c-.497 0-.899.4-.899.892s.402.891.899.891zM726.002 64.648h5.615c.497 0 .899-.4.899-.892a.895.895 0 0 0-.899-.891h-5.615c-.497 0-.899.399-.899.891 0 .493.402.892.899.892z" fill="#C3FF17"/><path d="M714.5 64.11a2.245 2.245 0 0 0 2.243 2.244h3.514a2.245 2.245 0 0 0 2.243-2.244v-3.517a2.245 2.245 0 0 0-2.243-2.244h-3.514a2.245 2.245 0 0 0-2.243 2.244v3.517z" fill="#C3FF17" stroke="#5CCD6A"/><path d="M726.002 71.768h9.487c.496 0 .899-.4.899-.892a.896.896 0 0 0-.899-.891h-9.487c-.497 0-.899.4-.899.891 0 .493.402.892.899.892zM726.002 75.617h5.615c.497 0 .899-.399.899-.891a.895.895 0 0 0-.899-.892h-5.615c-.497 0-.899.4-.899.892s.402.891.899.891z" fill="#C3FF17"/><path d="M722.5 71.6a2.245 2.245 0 0 0-2.243-2.243h-3.514A2.245 2.245 0 0 0 714.5 71.6v3.517a2.245 2.245 0 0 0 2.243 2.244h3.514a2.245 2.245 0 0 0 2.243-2.244V71.6z" fill="#C3FF17" stroke="#5CCD6A"/><path d="M726.002 82.738h9.487c.496 0 .899-.4.899-.892a.896.896 0 0 0-.899-.891h-9.487c-.497 0-.899.399-.899.891 0 .493.402.892.899.892zM726.002 86.587h5.615c.497 0 .899-.399.899-.891a.895.895 0 0 0-.899-.892h-5.615c-.497 0-.899.4-.899.892s.402.891.899.891z" fill="#C3FF17"/><path d="M722.5 82.608a2.245 2.245 0 0 0-2.243-2.244h-3.514a2.245 2.245 0 0 0-2.243 2.244v3.518a2.245 2.245 0 0 0 2.243 2.243h3.514a2.245 2.245 0 0 0 2.243-2.243v-3.518z" fill="#C3FF17" stroke="#5CCD6A"/><path d="M333.879 83.447c-2.739 2.75-2.397 8.3-2.397 8.3h-13.889s.293-5.55-2.396-8.3c-2.984-2.653-4.891-6.484-4.891-10.758 0-7.859 6.358-14.244 14.183-14.244s14.183 6.385 14.183 14.244c0 4.274-1.859 8.105-4.793 10.758z" fill="#C3FF17"/><path d="M331.874 96.12c0 .736-.587 1.326-1.32 1.326h-12.08c-.734 0-1.321-.59-1.321-1.327 0-.736.587-1.326 1.321-1.326h12.031c.733 0 1.369.59 1.369 1.326zM330.064 101.621c0 .737-.587 1.326-1.32 1.326h-8.461c-.734 0-1.32-.589-1.32-1.326 0-.737.586-1.326 1.32-1.326h8.461c.733 0 1.32.589 1.32 1.326z" fill="#D9FADD"/><path d="M334.613 83.938a15.222 15.222 0 0 0 4.989-11.249c0-8.35-6.798-15.178-15.113-15.178-8.314 0-15.112 6.828-15.112 15.178 0 4.372 1.908 8.547 5.136 11.396 2.396 2.407 2.151 7.515 2.151 7.565 0 .245.098.49.245.687.196.197.44.295.685.295h13.84a.964.964 0 0 0 .685-.295c.195-.196.244-.442.244-.688 0-.049-.244-5.157 2.152-7.564.049-.05.098-.098.098-.147zm-1.369-1.228c-.098.049-.147.147-.196.245-2.152 2.309-2.494 6.091-2.543 7.86h-11.982c-.049-1.818-.44-5.748-2.739-8.056-2.885-2.554-4.548-6.19-4.548-10.02 0-7.369 5.966-13.312 13.253-13.312 7.336 0 13.254 5.992 13.254 13.311 0 3.783-1.614 7.467-4.499 9.972z" fill="#5CCD6A"/><path d="M324.489 61.44a.93.93 0 0 0-.929.934.93.93 0 0 0 .929.933c5.478 0 9.928 4.47 9.928 9.972 0 .49.392.933.929.933a.93.93 0 0 0 .93-.933c0-6.533-5.282-11.838-11.787-11.838zM332.803 96.12a2.249 2.249 0 0 0-2.25-2.26h-12.079a2.249 2.249 0 0 0-2.25 2.26 2.249 2.249 0 0 0 2.25 2.259h12.031c1.271 0 2.298-.983 2.298-2.26zm-2.298.392h-12.031a.387.387 0 0 1-.392-.393c0-.245.196-.393.392-.393h12.031c.244 0 .391.197.391.393.049.246-.147.393-.391.393zM328.744 99.361h-8.461a2.249 2.249 0 0 0-2.249 2.26 2.248 2.248 0 0 0 2.249 2.259h8.461a2.248 2.248 0 0 0 2.25-2.259c0-1.228-1.027-2.26-2.25-2.26zm0 2.653h-8.461a.387.387 0 0 1-.391-.393c0-.246.196-.393.391-.393h8.461c.245 0 .391.196.391.393 0 .245-.146.393-.391.393zM325.418 52.059v-6.287a.93.93 0 0 0-.929-.934.93.93 0 0 0-.929.934v6.336a.93.93 0 0 0 .929.933c.538-.049.929-.442.929-.982zM339.895 49.505c-.441-.295-.979-.148-1.272.245l-3.472 5.256c-.294.442-.147.983.244 1.277a.943.943 0 0 0 .489.148c.294 0 .587-.148.783-.393l3.472-5.256c.294-.393.147-.983-.244-1.277zM313.436 56.234c.147 0 .343-.049.489-.147.441-.295.538-.835.294-1.277l-3.375-5.305c-.293-.442-.831-.54-1.271-.295-.44.295-.538.835-.294 1.277l3.375 5.305a.938.938 0 0 0 .782.442zM300.476 60.655l5.527 2.996c.146.098.293.098.44.098.342 0 .636-.196.831-.49a.925.925 0 0 0-.391-1.278l-5.526-2.996a.918.918 0 0 0-1.272.393c-.196.491-.049 1.031.391 1.277zM342.535 63.799c.147 0 .294-.05.441-.099l5.526-2.996a.954.954 0 0 0 .391-1.277.945.945 0 0 0-1.271-.393l-5.527 2.996a.955.955 0 0 0-.391 1.277c.147.295.489.492.831.492z" fill="#5CCD6A"/><path d="M1127.8 59.358c0 1.883-.36 3.619-.96 5.009.35.246.68.524.97.831l8.53-8.53a18.702 18.702 0 0 0-13.18-5.573c2.56.042 4.64 3.724 4.64 8.263zM1112.19 73.884c1.33-1.332 2.81-2.306 4.22-2.863a6.398 6.398 0 0 1-.11-1.165c0-.037.01-.074.01-.112h-12.06v.112c0 5.127 2.06 9.772 5.39 13.159-1.79-1.846-.66-5.92 2.55-9.131zM1118.2 80.355c0-1.884.36-3.62.96-5.01a6.384 6.384 0 0 1-.97-.831l-8.53 8.53a18.702 18.702 0 0 0 13.18 5.574c-2.56-.043-4.64-3.725-4.64-8.263zM1118.98 59.037c1.33 1.332 2.3 2.812 2.86 4.22.37-.065.76-.102 1.16-.102.04 0 .07.002.11.003V51.094l-.11-.001c-5.12 0-9.76 2.057-13.15 5.389 1.85-1.791 5.92-.656 9.13 2.555zM1112.51 65.054c1.88 0 3.62.358 5 .96.25-.35.53-.676.84-.973l-8.53-8.53a18.723 18.723 0 0 0-5.57 13.19c.04-2.571 3.72-4.647 8.26-4.647zM1133.49 74.659c-1.88 0-3.62-.359-5-.961-.25.35-.53.677-.84.974l8.53 8.53c3.4-3.368 5.53-8.03 5.57-13.19-.04 2.57-3.72 4.647-8.26 4.647zM1133.81 65.829c-1.33 1.332-2.81 2.305-4.22 2.862.07.379.11.768.11 1.165 0 .038-.01.075-.01.112h12.06v-.112c0-5.126-2.06-9.772-5.39-13.158 1.79 1.846.66 5.92-2.55 9.13zM1127.02 80.676c-1.33-1.332-2.3-2.813-2.86-4.222-.37.067-.76.103-1.16.103l-.11-.002v12.063l.11.002c5.12 0 9.76-2.057 13.15-5.39-1.85 1.791-5.92.656-9.13-2.554z" fill="#D9FADD"/><path d="M1133.49 74.659c4.56 0 8.26-2.1 8.26-4.691h-12.06a6.66 6.66 0 0 1-1.2 3.73c1.38.602 3.12.96 5 .96zM1133.81 65.829c3.23-3.228 4.36-7.33 2.53-9.161l-8.53 8.53a6.637 6.637 0 0 1 1.78 3.493c1.41-.557 2.89-1.53 4.22-2.862zM1127.8 59.358c0-4.565-2.1-8.265-4.69-8.265v12.065a6.66 6.66 0 0 1 3.73 1.21c.6-1.39.96-3.127.96-5.01zM1118.98 59.037c-3.23-3.228-7.33-4.36-9.16-2.527l8.53 8.53a6.65 6.65 0 0 1 3.49-1.782c-.56-1.409-1.53-2.89-2.86-4.221zM1112.51 65.054c-4.56 0-8.26 2.1-8.26 4.69h12.06a6.66 6.66 0 0 1 1.2-3.73c-1.38-.602-3.12-.96-5-.96zM1112.19 73.884c-3.23 3.227-4.36 7.329-2.53 9.16l8.53-8.53a6.637 6.637 0 0 1-1.78-3.493c-1.41.557-2.89 1.53-4.22 2.863zM1118.2 80.355c0 4.564 2.1 8.264 4.69 8.264V76.555a6.658 6.658 0 0 1-3.73-1.209c-.6 1.39-.96 3.126-.96 5.01zM1127.02 80.676c3.23 3.227 7.33 4.359 9.16 2.527l-8.53-8.531a6.65 6.65 0 0 1-3.49 1.782c.56 1.409 1.53 2.89 2.86 4.222z" fill="#C3FF17"/><path d="M1123 63.155c-3.7 0-6.7 3-6.7 6.701a6.7 6.7 0 1 0 6.7-6.701z" fill="#D9FADD"/><path d="M1123 72.09a2.233 2.233 0 0 0 0-4.468c-1.23 0-2.23 1-2.23 2.234s1 2.234 2.23 2.234z" fill="#C3FF17"/><path d="M1143.12 44.838h-40.24a4.89 4.89 0 0 0-4.88 4.887v40.263a4.89 4.89 0 0 0 4.88 4.886h40.24a4.89 4.89 0 0 0 4.88-4.886V49.725a4.89 4.89 0 0 0-4.88-4.887zm2.93 45.15a2.938 2.938 0 0 1-2.93 2.931h-40.24a2.938 2.938 0 0 1-2.93-2.931V49.725a2.938 2.938 0 0 1 2.93-2.932h40.24c1.61 0 2.93 1.315 2.93 2.932v40.263z" fill="#5CCD6A"/><path d="M1143.02 85.004a.98.98 0 0 0-.98.977 2.931 2.931 0 0 1-2.93 2.932c-.54 0-.97.437-.97.977s.43.977.97.977c2.7 0 4.89-2.192 4.89-4.886a.98.98 0 0 0-.98-.977zM1139.11 48.845a.97.97 0 0 0-.97.977c0 .54.43.978.97.978 1.62 0 2.93 1.315 2.93 2.931a.98.98 0 0 0 1.96 0 4.891 4.891 0 0 0-4.89-4.886zM1102.98 54.709a.98.98 0 0 0 .98-.978 2.931 2.931 0 0 1 2.93-2.931c.54 0 .97-.438.97-.978a.97.97 0 0 0-.97-.977c-2.7 0-4.89 2.192-4.89 4.886 0 .54.44.978.98.978zM1106.89 88.913a2.931 2.931 0 0 1-2.93-2.932.98.98 0 0 0-1.96 0 4.891 4.891 0 0 0 4.89 4.886.97.97 0 0 0 .97-.977c0-.54-.43-.977-.97-.977zM1139.11 87.056a1.075 1.075 0 1 0 .01-2.15 1.075 1.075 0 0 0-.01 2.15zM1106.98 87.056a1.075 1.075 0 1 0 .01-2.15 1.075 1.075 0 0 0-.01 2.15zM1139.11 54.806a1.075 1.075 0 1 0 .01-2.15 1.075 1.075 0 0 0-.01 2.15zM1106.98 54.806a1.075 1.075 0 1 0 .01-2.15 1.075 1.075 0 0 0-.01 2.15zM1136.95 83.796a19.665 19.665 0 0 0 5.77-13.672c.01-.052.01-.104.01-.156V69.856c0-5.288-2.09-10.098-5.49-13.645-.07-.08-.14-.16-.21-.235-.03-.03-.07-.058-.1-.084a19.658 19.658 0 0 0-13.82-5.777l-.02.002-.09-.002c-5.28 0-10.09 2.09-13.63 5.486-.08.07-.16.141-.24.217a.536.536 0 0 0-.08.098 19.666 19.666 0 0 0-5.77 13.673c-.01.051-.01.103-.01.155V69.857c0 5.288 2.09 10.097 5.49 13.644.07.081.14.16.21.235.03.03.07.058.1.084a19.659 19.659 0 0 0 13.82 5.777l.02-.001h.09c5.29 0 10.1-2.093 13.64-5.495.08-.066.16-.134.23-.207.03-.031.06-.064.08-.098zm-27.11-25.884 6.71 6.717c-1.21-.355-2.58-.553-4.04-.553-2.74 0-5.16.696-6.84 1.821a17.735 17.735 0 0 1 4.17-7.985zm7.44 11.944a5.731 5.731 0 0 1 5.72-5.724c3.15 0 5.72 2.568 5.72 5.724a5.731 5.731 0 0 1-5.72 5.724 5.731 5.731 0 0 1-5.72-5.724zm4.63 7.6v9.902c-.54-.313-1.05-.875-1.49-1.642-.8-1.416-1.24-3.32-1.24-5.361 0-1.275.17-2.496.5-3.579a7.54 7.54 0 0 0 2.23.68zm-6.15-5.059c.26.746.64 1.44 1.1 2.061l-7 7.004c-.16-.603-.12-1.364.11-2.214.43-1.57 1.47-3.23 2.91-4.673a12.57 12.57 0 0 1 2.88-2.178zm-.35-3.63h-9.9c.31-.539.87-1.054 1.64-1.49 1.42-.803 3.32-1.246 5.36-1.246 1.27 0 2.49.174 3.57.5a7.67 7.67 0 0 0-.67 2.236zm-4.01-12.056c.6-.16 1.37-.128 2.22.107 1.56.433 3.22 1.466 4.66 2.91.91.901 1.65 1.888 2.18 2.884-.74.262-1.44.635-2.06 1.102l-7-7.003zm12.69 5.545v-9.902c.54.313 1.05.875 1.49 1.642.8 1.416 1.24 3.32 1.24 5.362 0 1.275-.17 2.495-.5 3.578a7.543 7.543 0 0 0-2.23-.68zM1127.6 76l7 7.003c-.6.16-1.37.127-2.22-.108-1.56-.433-3.22-1.466-4.66-2.91-.91-.901-1.65-1.888-2.18-2.884A7.595 7.595 0 0 0 1127.6 76zm2.99-5.054h9.9c-.31.54-.87 1.055-1.64 1.49-1.42.804-3.32 1.246-5.36 1.246-1.27 0-2.49-.173-3.57-.499a7.67 7.67 0 0 0 .67-2.237zm-1.45-5.691 7-7.003c.16.602.12 1.364-.11 2.214-.43 1.57-1.47 3.229-2.91 4.672-.9.902-1.89 1.643-2.88 2.178a7.775 7.775 0 0 0-1.1-2.061zm2.11 3.737a14.466 14.466 0 0 0 3.25-2.471c1.93-1.934 3.16-4.137 3.55-6.117a17.671 17.671 0 0 1 2.7 8.588h-9.5zm-3.03-5.586c.36-1.216.56-2.587.56-4.047 0-2.74-.7-5.165-1.82-6.843 3.02.69 5.75 2.155 7.98 4.173l-6.72 6.717zm-6.08-1.807a14.614 14.614 0 0 0-2.47-3.252c-1.68-1.679-3.65-2.89-5.54-3.412a7.698 7.698 0 0 0-.58-.137 17.654 17.654 0 0 1 8.59-2.705v9.506zm-7.39 9.124a14.463 14.463 0 0 0-3.25 2.47c-1.93 1.935-3.16 4.138-3.55 6.117a17.67 17.67 0 0 1-2.7-8.587h9.5zm3.03 5.585a14.323 14.323 0 0 0-.56 4.048c0 2.739.7 5.164 1.82 6.843a17.808 17.808 0 0 1-7.98-4.174l6.72-6.717zm6.08 1.807c.61 1.11 1.44 2.22 2.47 3.253 1.94 1.933 4.14 3.155 6.12 3.549a17.656 17.656 0 0 1-8.59 2.705v-9.507zm5.59-3.03c1.21.354 2.58.552 4.04.552 2.74 0 5.16-.696 6.84-1.821a17.735 17.735 0 0 1-4.17 7.985l-6.71-6.717z" fill="#5CCD6A"/><path d="M1126.21 69.846a3.216 3.216 0 0 0-3.22-3.2 3.218 3.218 0 0 0-3.2 3.22 3.216 3.216 0 0 0 3.22 3.201 3.218 3.218 0 0 0 3.2-3.221zm-4.47.014c0-.693.56-1.258 1.26-1.26.69-.003 1.25.56 1.26 1.252 0 .693-.56 1.258-1.26 1.26-.69.003-1.25-.559-1.26-1.252z" fill="#5CCD6A"/></svg>