<svg width="375" height="563" fill="none" xmlns="http://www.w3.org/2000/svg"><circle cx="155" cy="119.986" r="50" fill="#D9FADD"/><path d="M81.792 211.986h-8.088v-16.008h7.872c1.424 0 2.536.392 3.336 1.176.816.768 1.224 1.736 1.224 2.904 0 .96-.272 1.776-.816 2.448-.528.656-1.184 1.064-1.968 1.224.864.128 1.592.576 2.184 1.344.608.752.912 1.616.912 2.592 0 1.28-.416 2.32-1.248 3.12-.816.8-1.952 1.2-3.408 1.2zM81 202.602c.704 0 1.256-.192 1.656-.576.4-.384.6-.88.6-1.488 0-.624-.2-1.128-.6-1.512-.4-.384-.952-.576-1.656-.576h-4.488v4.152H81zm.12 6.912c.768 0 1.368-.192 1.8-.576.432-.4.648-.952.648-1.656 0-.624-.216-1.144-.648-1.56-.432-.432-1.032-.648-1.8-.648h-4.608v4.44h4.608zm17.674 2.472h-2.52v-1.248c-.895 1.024-2.144 1.536-3.743 1.536a4.292 4.292 0 0 1-2.809-1.008c-.816-.688-1.223-1.632-1.223-2.832 0-1.232.4-2.168 1.2-2.808.816-.64 1.76-.96 2.832-.96 1.647 0 2.895.496 3.743 1.488v-1.728c0-.672-.248-1.2-.743-1.584-.497-.384-1.153-.576-1.969-.576-1.296 0-2.44.488-3.431 1.464l-1.032-1.752c1.311-1.248 2.935-1.872 4.871-1.872 1.424 0 2.585.336 3.48 1.008.897.672 1.344 1.736 1.344 3.192v7.68zm-5.28-1.44c1.264 0 2.184-.4 2.76-1.2v-1.752c-.576-.8-1.496-1.2-2.76-1.2-.72 0-1.311.192-1.775.576-.465.384-.697.888-.697 1.512s.233 1.128.697 1.512c.463.368 1.055.552 1.775.552zm21.748-10.152h2.52v11.592h-15.72v-11.592h2.52v9.384h4.08v-9.384h2.52v9.384h4.08v-9.384zm11.136 11.88c-1.76 0-3.216-.56-4.368-1.68-1.136-1.136-1.704-2.608-1.704-4.416 0-1.696.552-3.128 1.656-4.296 1.12-1.184 2.528-1.776 4.224-1.776 1.712 0 3.088.592 4.128 1.776 1.056 1.184 1.584 2.696 1.584 4.536v.6h-8.952c.096.912.472 1.672 1.128 2.28.656.608 1.512.912 2.568.912.592 0 1.184-.112 1.776-.336.608-.224 1.112-.536 1.512-.936l1.152 1.656c-1.168 1.12-2.736 1.68-4.704 1.68zm3.072-7.032c-.032-.8-.328-1.512-.888-2.136-.544-.624-1.336-.936-2.376-.936-.992 0-1.768.312-2.328.936a3.472 3.472 0 0 0-.936 2.136h6.528zm12.78 6.744h-3.168l4.92-6.336-4.824-5.256h3.12l4.152 4.536v-4.536h2.52v4.536l4.152-4.536h3.12l-4.824 5.256 4.92 6.336h-3.168l-3.552-4.776-.648.672v4.104h-2.52v-4.104l-.648-.672-3.552 4.776zm21.109.288c-1.76 0-3.216-.56-4.368-1.68-1.136-1.136-1.704-2.608-1.704-4.416 0-1.696.552-3.128 1.656-4.296 1.12-1.184 2.528-1.776 4.224-1.776 1.712 0 3.088.592 4.128 1.776 1.056 1.184 1.584 2.696 1.584 4.536v.6h-8.952c.096.912.472 1.672 1.128 2.28.656.608 1.512.912 2.568.912.592 0 1.184-.112 1.776-.336.608-.224 1.112-.536 1.512-.936l1.152 1.656c-1.168 1.12-2.736 1.68-4.704 1.68zm3.072-7.032c-.032-.8-.328-1.512-.888-2.136-.544-.624-1.336-.936-2.376-.936-.992 0-1.768.312-2.328.936a3.472 3.472 0 0 0-.936 2.136h6.528zm3.735 7.032v-2.064c.496 0 .888-.32 1.176-.96.304-.64.552-1.712.744-3.216l.696-5.64h8.952v11.592h-2.52v-9.384h-4.2l-.408 3.72c-.224 2.08-.696 3.592-1.416 4.536-.72.944-1.728 1.416-3.024 1.416zm24.441-.288h-2.52v-1.248c-.896 1.024-2.144 1.536-3.744 1.536a4.292 4.292 0 0 1-2.808-1.008c-.816-.688-1.224-1.632-1.224-2.832 0-1.232.4-2.168 1.2-2.808.816-.64 1.76-.96 2.832-.96 1.648 0 2.896.496 3.744 1.488v-1.728c0-.672-.248-1.2-.744-1.584-.496-.384-1.152-.576-1.968-.576-1.296 0-2.44.488-3.432 1.464l-1.032-1.752c1.312-1.248 2.936-1.872 4.872-1.872 1.424 0 2.584.336 3.48 1.008.896.672 1.344 1.736 1.344 3.192v7.68zm-5.28-1.44c1.264 0 2.184-.4 2.76-1.2v-1.752c-.576-.8-1.496-1.2-2.76-1.2-.72 0-1.312.192-1.776.576-.464.384-.696.888-.696 1.512s.232 1.128.696 1.512c.464.368 1.056.552 1.776.552zm11.067 1.44h-2.52v-11.592h2.52v4.56h5.328v-4.56h2.52v11.592h-2.52v-4.824h-5.328v4.824zm13.545 0h-2.424v-11.592h2.52v7.8l5.328-7.8h2.52v11.592h-2.52v-8.016l-5.424 8.016zm16.568.288c-1.76 0-3.216-.56-4.368-1.68-1.136-1.136-1.704-2.608-1.704-4.416 0-1.696.552-3.128 1.656-4.296 1.12-1.184 2.528-1.776 4.224-1.776 1.712 0 3.088.592 4.128 1.776 1.056 1.184 1.584 2.696 1.584 4.536v.6h-8.952c.096.912.472 1.672 1.128 2.28.656.608 1.512.912 2.568.912.592 0 1.184-.112 1.776-.336.608-.224 1.112-.536 1.512-.936l1.152 1.656c-1.168 1.12-2.736 1.68-4.704 1.68zm3.072-7.032c-.032-.8-.328-1.512-.888-2.136-.544-.624-1.336-.936-2.376-.936-.992 0-1.768.312-2.328.936a3.472 3.472 0 0 0-.936 2.136h6.528z" fill="#495E4C"/><path d="M163.879 129.432c-2.739 2.751-2.397 8.301-2.397 8.301h-13.889s.293-5.55-2.396-8.301c-2.984-2.652-4.891-6.484-4.891-10.757 0-7.859 6.358-14.245 14.183-14.245s14.183 6.386 14.183 14.245c0 4.273-1.859 8.105-4.793 10.757z" fill="#C3FF17"/><path d="M161.874 142.105c0 .737-.587 1.326-1.32 1.326h-12.08a1.318 1.318 0 0 1-1.321-1.326c0-.737.587-1.326 1.321-1.326h12.031c.733 0 1.369.589 1.369 1.326zM160.064 147.606c0 .737-.587 1.327-1.32 1.327h-8.461c-.734 0-1.32-.59-1.32-1.327 0-.736.586-1.326 1.32-1.326h8.461c.733 0 1.32.59 1.32 1.326z" fill="#D9FADD"/><path d="M164.613 129.923a15.221 15.221 0 0 0 4.989-11.248c0-8.351-6.798-15.178-15.113-15.178-8.314 0-15.112 6.827-15.112 15.178 0 4.372 1.908 8.547 5.136 11.396 2.396 2.407 2.151 7.515 2.151 7.564 0 .246.098.491.245.688.196.196.44.294.685.294h13.84a.965.965 0 0 0 .685-.294c.195-.197.244-.442.244-.688 0-.049-.244-5.157 2.152-7.564.049-.049.098-.099.098-.148zm-1.369-1.228c-.098.049-.147.148-.196.246-2.152 2.309-2.494 6.091-2.543 7.859h-11.982c-.049-1.817-.44-5.747-2.739-8.056-2.885-2.554-4.548-6.189-4.548-10.02 0-7.368 5.966-13.311 13.253-13.311 7.336 0 13.254 5.992 13.254 13.311 0 3.782-1.614 7.466-4.499 9.971z" fill="#5CCD6A"/><path d="M154.489 107.426a.93.93 0 0 0-.929.934.93.93 0 0 0 .929.933c5.478 0 9.928 4.47 9.928 9.971 0 .491.392.934.929.934a.93.93 0 0 0 .93-.934c0-6.533-5.282-11.838-11.787-11.838zM162.803 142.105a2.25 2.25 0 0 0-2.25-2.26h-12.079a2.249 2.249 0 0 0-2.25 2.26 2.248 2.248 0 0 0 2.25 2.259h12.031c1.271 0 2.298-.982 2.298-2.259zm-2.298.393h-12.031a.387.387 0 0 1-.392-.393c0-.246.196-.393.392-.393h12.031c.244 0 .391.197.391.393.049.246-.147.393-.391.393zM158.744 145.347h-8.461a2.248 2.248 0 0 0-2.249 2.259 2.248 2.248 0 0 0 2.249 2.26h8.461a2.249 2.249 0 0 0 2.25-2.26c0-1.228-1.027-2.259-2.25-2.259zm0 2.652h-8.461a.386.386 0 0 1-.391-.393c0-.245.196-.393.391-.393h8.461c.245 0 .391.197.391.393 0 .246-.146.393-.391.393zM155.418 98.045v-6.288a.93.93 0 0 0-.929-.933.93.93 0 0 0-.929.933v6.337a.93.93 0 0 0 .929.933c.538-.05.929-.442.929-.982zM169.895 95.49c-.441-.294-.979-.147-1.272.246l-3.472 5.256c-.294.442-.147.982.244 1.277a.945.945 0 0 0 .489.147c.294 0 .587-.147.783-.393l3.472-5.255c.294-.394.147-.983-.244-1.278zM143.436 102.22a.932.932 0 0 0 .489-.148c.441-.294.538-.835.294-1.277l-3.375-5.305c-.293-.442-.831-.54-1.271-.294-.44.294-.538.835-.294 1.277l3.375 5.305a.94.94 0 0 0 .782.442zM130.476 106.641l5.527 2.996c.146.098.293.098.44.098.342 0 .636-.196.831-.491a.925.925 0 0 0-.391-1.277l-5.526-2.997a.919.919 0 0 0-1.272.393c-.196.492-.049 1.032.391 1.278zM172.535 109.784c.147 0 .294-.049.441-.098l5.526-2.996a.954.954 0 0 0 .391-1.277.944.944 0 0 0-1.271-.393l-5.527 2.996a.955.955 0 0 0-.391 1.277c.147.295.489.491.831.491z" fill="#5CCD6A"/><path d="M-60.51 1.986c5.102 9.407 24.754 35.439 62.56 64.304 47.256 36.082 79.557 38.407 94.546 43.149m0 0-4.725-6.588m4.725 6.588-7.775 3.513M218 129.486c53.5 0 106.753 16.86 120.545 62.272 9.018 37.324-8.518 64.575-40.324 97.549m0 0 8.279-1.321m-8.279 1.321-.221-9.321" stroke="#78C081" stroke-width="2" stroke-linecap="round" stroke-linejoin="round"/><circle cx="225" cy="293.986" r="50" fill="#D9FADD"/><path d="M191.912 386.274c-1.376 0-2.64-.24-3.792-.72-1.136-.496-1.984-1.12-2.544-1.872l1.512-1.848c.512.592 1.208 1.064 2.088 1.416.88.352 1.76.528 2.64.528 1.136 0 2.024-.216 2.664-.648.656-.448.984-1.048.984-1.8 0-1.504-1.288-2.256-3.864-2.256h-3.216v-2.472h3.216c1.072 0 1.936-.176 2.592-.528.672-.352 1.008-.88 1.008-1.584 0-.72-.336-1.272-1.008-1.656-.672-.4-1.52-.6-2.544-.6-1.76 0-3.232.592-4.416 1.776l-1.44-1.752c.64-.752 1.496-1.36 2.568-1.824 1.088-.464 2.272-.696 3.552-.696 1.776 0 3.232.392 4.368 1.176 1.152.784 1.728 1.832 1.728 3.144 0 .992-.352 1.816-1.056 2.472a4.645 4.645 0 0 1-2.424 1.2c.912.08 1.76.464 2.544 1.152s1.176 1.6 1.176 2.736c0 1.36-.6 2.48-1.8 3.36-1.184.864-2.696 1.296-4.536 1.296zm18.687-.288h-2.52v-1.248c-.896 1.024-2.144 1.536-3.744 1.536a4.292 4.292 0 0 1-2.808-1.008c-.816-.688-1.224-1.632-1.224-2.832 0-1.232.4-2.168 1.2-2.808.816-.64 1.76-.96 2.832-.96 1.648 0 2.896.496 3.744 1.488v-1.728c0-.672-.248-1.2-.744-1.584-.496-.384-1.152-.576-1.968-.576-1.296 0-2.44.488-3.432 1.464l-1.032-1.752c1.312-1.248 2.936-1.872 4.872-1.872 1.424 0 2.584.336 3.48 1.008.896.672 1.344 1.736 1.344 3.192v7.68zm-5.28-1.44c1.264 0 2.184-.4 2.76-1.2v-1.752c-.576-.8-1.496-1.2-2.76-1.2-.72 0-1.312.192-1.776.576-.464.384-.696.888-.696 1.512s.232 1.128.696 1.512c.464.368 1.056.552 1.776.552zm11.019 1.44h-2.88l2.856-4.32a3.426 3.426 0 0 1-1.968-1.2c-.496-.624-.744-1.416-.744-2.376 0-1.04.336-1.912 1.008-2.616.688-.72 1.632-1.08 2.832-1.08h6.624v11.592h-2.52v-4.2h-2.664l-2.544 4.2zm1.416-6.408h3.792v-2.976h-3.792c-.48 0-.864.144-1.152.432-.288.272-.432.624-.432 1.056 0 .448.136.808.408 1.08.288.272.68.408 1.176.408zm16.67 6.408h-7.104v-11.592h6.936c1.072 0 1.912.28 2.52.84.608.56.912 1.272.912 2.136 0 .672-.184 1.24-.552 1.704a2.677 2.677 0 0 1-1.392.936c.624.144 1.144.488 1.56 1.032a2.83 2.83 0 0 1 .624 1.8c0 .928-.312 1.688-.936 2.28-.608.576-1.464.864-2.568.864zm-.528-2.208c.448 0 .8-.112 1.056-.336.256-.24.384-.56.384-.96 0-.368-.128-.68-.384-.936s-.608-.384-1.056-.384h-4.056v2.616h4.056zm-.072-4.824c.4 0 .712-.104.936-.312.24-.224.36-.504.36-.84 0-.368-.12-.656-.36-.864-.224-.224-.536-.336-.936-.336h-3.984v2.352h3.984zm18.078 7.032h-3.168l-3.552-4.776-1.608 1.656v3.12h-2.52v-11.592h2.52v5.592l5.112-5.592h3.12l-4.824 5.256 4.92 6.336zm11.385 0h-2.52v-1.248c-.896 1.024-2.144 1.536-3.744 1.536a4.292 4.292 0 0 1-2.808-1.008c-.816-.688-1.224-1.632-1.224-2.832 0-1.232.4-2.168 1.2-2.808.816-.64 1.76-.96 2.832-.96 1.648 0 2.896.496 3.744 1.488v-1.728c0-.672-.248-1.2-.744-1.584-.496-.384-1.152-.576-1.968-.576-1.296 0-2.44.488-3.432 1.464l-1.032-1.752c1.312-1.248 2.936-1.872 4.872-1.872 1.424 0 2.584.336 3.48 1.008.896.672 1.344 1.736 1.344 3.192v7.68zm-5.28-1.44c1.264 0 2.184-.4 2.76-1.2v-1.752c-.576-.8-1.496-1.2-2.76-1.2-.72 0-1.312.192-1.776.576-.464.384-.696.888-.696 1.512s.232 1.128.696 1.512c.464.368 1.056.552 1.776.552z" fill="#495E4C"/><path d="M245.101 275.763v43.023c0 1.759-1.438 3.185-3.211 3.185h-33.78c-1.773 0-3.211-1.426-3.211-3.185v-43.023c0-1.758 1.438-3.184 3.211-3.184h7.403v4.459c0 .659.539 1.193 1.204 1.193h16.566c.664 0 1.203-.534 1.203-1.193v-4.459h7.404c1.773 0 3.211 1.426 3.211 3.184z" fill="#D9FADD"/><path d="M234.487 271.575v5.465c0 .659-.539 1.193-1.204 1.193h-16.566a1.198 1.198 0 0 1-1.204-1.193v-5.465c0-.659.539-1.193 1.204-1.193h4.555v-.012c0-2.537 2.626-4.482 5.337-3.337 1.318.557 2.107 1.917 2.107 3.337v.012h4.567c.665 0 1.204.534 1.204 1.193z" fill="#D9FADD"/><path d="M233.284 269.49h-3.749c-.919-4.95-8.111-4.833-9.074 0h-3.745a2.096 2.096 0 0 0-2.102 2.085v.112h-6.504c-2.266 0-4.11 1.829-4.11 4.076v43.023c0 2.248 1.844 4.076 4.11 4.076h33.78c2.266 0 4.11-1.828 4.11-4.076v-43.023c0-2.247-1.844-4.076-4.11-4.076h-6.504v-.112a2.096 2.096 0 0 0-2.102-2.085zm-16.568 1.783h4.556c.497 0 .899-.41.899-.903 0-3.566 5.646-3.797 5.646.012 0 .492.403.891.9.891h4.567c.167 0 .304.136.304.302l-.001 5.463a.303.303 0 0 1-.304.302h-16.566a.303.303 0 0 1-.304-.302l-.001-5.463c0-.166.137-.302.304-.302zm0 7.851h16.568a2.096 2.096 0 0 0 2.102-2.084v-.002l4.552-.03c.384 0 .696.31.696.691v39.152c0 .38-.312.69-.696.69h-29.876a.694.694 0 0 1-.696-.69v-39.152c0-.381.312-.691.696-.691h4.552v.032c0 1.149.943 2.084 2.102 2.084zm25.174-5.654a2.305 2.305 0 0 1 2.312 2.293v43.023a2.305 2.305 0 0 1-2.312 2.293h-33.78a2.305 2.305 0 0 1-2.312-2.293v-43.023a2.305 2.305 0 0 1 2.312-2.293h6.504v1.755h-4.552c-1.375 0-2.494 1.11-2.494 2.474v39.151c0 1.364 1.119 2.474 2.494 2.474h29.876c1.375 0 2.494-1.11 2.494-2.474v-39.151c0-1.364-1.119-2.474-2.494-2.474h-4.552v-1.755h6.504z" fill="#5CCD6A"/><path d="M225.638 269.995c.333-.349.362-.866 0-1.266-.333-.33-.935-.33-1.276 0-.352.386-.341.91 0 1.266a.918.918 0 0 0 1.276 0z" fill="#5CCD6A"/><path d="M226.002 285.784h9.487a.896.896 0 0 0 .899-.892.895.895 0 0 0-.899-.891h-9.487a.895.895 0 0 0-.899.891c0 .493.402.892.899.892zM226.002 289.633h5.615a.895.895 0 0 0 .899-.891.895.895 0 0 0-.899-.892h-5.615a.895.895 0 0 0-.899.892c0 .492.402.891.899.891z" fill="#C3FF17"/><path d="M214.5 289.096a2.245 2.245 0 0 0 2.243 2.243h3.514a2.245 2.245 0 0 0 2.243-2.243v-3.518a2.245 2.245 0 0 0-2.243-2.244h-3.514a2.245 2.245 0 0 0-2.243 2.244v3.518z" fill="#C3FF17" stroke="#5CCD6A"/><path d="M226.002 296.754h9.487c.496 0 .899-.4.899-.892a.895.895 0 0 0-.899-.891h-9.487a.895.895 0 0 0-.899.891c0 .492.402.892.899.892zM226.002 300.603h5.615a.895.895 0 0 0 .899-.892.895.895 0 0 0-.899-.891h-5.615a.895.895 0 0 0-.899.891c0 .493.402.892.899.892z" fill="#C3FF17"/><path d="M222.5 296.586a2.245 2.245 0 0 0-2.243-2.244h-3.514a2.245 2.245 0 0 0-2.243 2.244v3.517a2.245 2.245 0 0 0 2.243 2.244h3.514a2.245 2.245 0 0 0 2.243-2.244v-3.517z" fill="#C3FF17" stroke="#5CCD6A"/><path d="M226.002 307.723h9.487a.895.895 0 0 0 .899-.891.896.896 0 0 0-.899-.892h-9.487a.895.895 0 0 0-.899.892c0 .492.402.891.899.891zM226.002 311.573h5.615a.895.895 0 0 0 .899-.892.895.895 0 0 0-.899-.891h-5.615a.895.895 0 0 0-.899.891c0 .493.402.892.899.892z" fill="#C3FF17"/><path d="M222.5 307.594a2.245 2.245 0 0 0-2.243-2.244h-3.514a2.245 2.245 0 0 0-2.243 2.244v3.517a2.245 2.245 0 0 0 2.243 2.244h3.514a2.245 2.245 0 0 0 2.243-2.244v-3.517z" fill="#C3FF17" stroke="#5CCD6A"/><path d="M166 328.986c-45 14.999-140.29 54.808-144.56 96.432-3.322 32.373 16.56 45.567 35.37 46.807m0 0-4.31-6.239m4.31 6.239L50 475.986" stroke="#78C081" stroke-width="2" stroke-linecap="round" stroke-linejoin="round"/><circle cx="118" cy="467.986" r="50" fill="#D9FADD"/><path d="M55.512 559.986h-2.808v-16.008h7.032c1.616 0 2.888.48 3.816 1.44.944.96 1.416 2.152 1.416 3.576 0 1.408-.472 2.6-1.416 3.576-.928.96-2.2 1.44-3.816 1.44h-4.224v5.976zm3.84-8.448c.8 0 1.456-.232 1.968-.696.512-.464.768-1.08.768-1.848s-.256-1.384-.768-1.848c-.512-.464-1.168-.696-1.968-.696h-3.84v5.088h3.84zm12.882 8.736c-1.76 0-3.216-.56-4.368-1.68-1.136-1.136-1.704-2.608-1.704-4.416 0-1.696.552-3.128 1.656-4.296 1.12-1.184 2.528-1.776 4.224-1.776 1.712 0 3.088.592 4.128 1.776 1.056 1.184 1.584 2.696 1.584 4.536v.6h-8.952c.096.912.472 1.672 1.128 2.28.656.608 1.512.912 2.568.912.592 0 1.184-.112 1.776-.336.608-.224 1.112-.536 1.512-.936l1.152 1.656c-1.168 1.12-2.736 1.68-4.704 1.68zm3.072-7.032c-.032-.8-.328-1.512-.888-2.136-.544-.624-1.336-.936-2.376-.936-.992 0-1.768.312-2.328.936a3.472 3.472 0 0 0-.936 2.136h6.528zm14.535 6.744h-2.52v-1.248c-.896 1.024-2.144 1.536-3.744 1.536a4.292 4.292 0 0 1-2.808-1.008c-.816-.688-1.224-1.632-1.224-2.832 0-1.232.4-2.168 1.2-2.808.816-.64 1.76-.96 2.832-.96 1.648 0 2.896.496 3.744 1.488v-1.728c0-.672-.248-1.2-.744-1.584-.496-.384-1.152-.576-1.968-.576-1.296 0-2.44.488-3.432 1.464l-1.032-1.752c1.312-1.248 2.936-1.872 4.872-1.872 1.424 0 2.584.336 3.48 1.008.896.672 1.344 1.736 1.344 3.192v7.68zm-5.28-1.44c1.264 0 2.184-.4 2.76-1.2v-1.752c-.576-.8-1.496-1.2-2.76-1.2-.72 0-1.312.192-1.776.576-.464.384-.696.888-.696 1.512s.232 1.128.696 1.512c.464.368 1.056.552 1.776.552zm7.348 1.728v-2.064c.496 0 .888-.32 1.176-.96.304-.64.552-1.712.744-3.216l.696-5.64h8.952v11.592h-2.52v-9.384h-4.2l-.408 3.72c-.224 2.08-.696 3.592-1.416 4.536-.72.944-1.728 1.416-3.024 1.416zm17.264-.288h-2.424v-11.592h2.52v7.8l5.328-7.8h2.52v11.592h-2.52v-8.016l-5.424 8.016zm15.393.288c-2.272 0-4.048-.624-5.328-1.872l1.176-1.608c1.056.944 2.44 1.416 4.152 1.416.88 0 1.568-.136 2.064-.408.512-.288.768-.672.768-1.152 0-1.008-1.016-1.512-3.048-1.512h-2.472v-2.016h2.472c.88 0 1.568-.128 2.064-.384.512-.256.768-.632.768-1.128 0-.416-.264-.76-.792-1.032s-1.192-.408-1.992-.408c-1.552 0-2.792.464-3.72 1.392l-1.248-1.536c1.232-1.264 2.848-1.896 4.848-1.896 1.712-.016 3.056.264 4.032.84.992.56 1.488 1.328 1.488 2.304 0 .736-.312 1.36-.936 1.872-.608.496-1.32.8-2.136.912a4.494 4.494 0 0 1 2.256.816c.704.48 1.056 1.136 1.056 1.968 0 1.008-.496 1.832-1.488 2.472-.976.64-2.304.96-3.984.96zm17.611-.288h-2.52v-1.248c-.896 1.024-2.144 1.536-3.744 1.536a4.292 4.292 0 0 1-2.808-1.008c-.816-.688-1.224-1.632-1.224-2.832 0-1.232.4-2.168 1.2-2.808.816-.64 1.76-.96 2.832-.96 1.648 0 2.896.496 3.744 1.488v-1.728c0-.672-.248-1.2-.744-1.584-.496-.384-1.152-.576-1.968-.576-1.296 0-2.44.488-3.432 1.464l-1.032-1.752c1.312-1.248 2.936-1.872 4.872-1.872 1.424 0 2.584.336 3.48 1.008.896.672 1.344 1.736 1.344 3.192v7.68zm-5.28-1.44c1.264 0 2.184-.4 2.76-1.2v-1.752c-.576-.8-1.496-1.2-2.76-1.2-.72 0-1.312.192-1.776.576-.464.384-.696.888-.696 1.512s.232 1.128.696 1.512c.464.368 1.056.552 1.776.552zm17.668 4.392v-2.952h-9.12v-11.592h2.52v9.384h5.328v-9.384h2.519v9.384h1.273v5.16h-2.52zm7.014-2.952h-2.424v-11.592h2.52v7.8l5.328-7.8h2.52v11.592h-2.52v-8.016l-5.424 8.016zm13.689 0h-2.88l2.856-4.32a3.426 3.426 0 0 1-1.968-1.2c-.496-.624-.744-1.416-.744-2.376 0-1.04.336-1.912 1.008-2.616.688-.72 1.632-1.08 2.832-1.08h6.624v11.592h-2.52v-4.2h-2.664l-2.544 4.2zm1.416-6.408h3.792v-2.976h-3.792c-.48 0-.864.144-1.152.432-.288.272-.432.624-.432 1.056 0 .448.136.808.408 1.08.288.272.68.408 1.176.408z" fill="#495E4C"/><path d="M122.799 458.343c0 1.884-.358 3.62-.96 5.01.351.246.676.524.973.831l8.524-8.53a18.68 18.68 0 0 0-13.18-5.574c2.568.043 4.643 3.725 4.643 8.263zM107.188 472.869c1.331-1.332 2.811-2.305 4.218-2.862a6.784 6.784 0 0 1-.102-1.165l.002-.112H99.251l-.001.112c0 5.126 2.055 9.772 5.385 13.158-1.789-1.846-.655-5.92 2.553-9.131zM113.201 479.34c0-1.884.358-3.619.96-5.009a6.722 6.722 0 0 1-.973-.832l-8.524 8.531a18.684 18.684 0 0 0 13.18 5.573c-2.568-.042-4.643-3.724-4.643-8.263zM113.975 458.022c1.331 1.332 2.304 2.813 2.861 4.222a6.666 6.666 0 0 1 1.164-.103l.112.002V450.08l-.112-.002a18.678 18.678 0 0 0-13.149 5.39c1.845-1.792 5.916-.656 9.124 2.554zM107.509 464.039c1.882 0 3.617.359 5.006.961.246-.351.524-.677.831-.974l-8.525-8.53a18.71 18.71 0 0 0-5.57 13.19c.043-2.57 3.723-4.647 8.258-4.647zM128.491 473.644c-1.882 0-3.617-.358-5.006-.96a6.77 6.77 0 0 1-.831.973l8.525 8.531a18.712 18.712 0 0 0 5.569-13.19c-.042 2.57-3.722 4.646-8.257 4.646zM128.812 464.814c-1.331 1.332-2.811 2.306-4.218 2.863.066.378.102.767.102 1.165l-.002.112h12.055l.001-.112c0-5.127-2.055-9.772-5.385-13.159 1.789 1.846.655 5.921-2.553 9.131zM122.025 479.661c-1.331-1.332-2.304-2.812-2.861-4.221a6.764 6.764 0 0 1-1.164.103l-.112-.003v12.064l.112.001c5.123 0 9.765-2.057 13.149-5.389-1.844 1.791-5.916.656-9.124-2.555z" fill="#D9FADD"/><path d="M128.491 473.644c4.561 0 8.259-2.1 8.259-4.691h-12.056a6.679 6.679 0 0 1-1.209 3.731c1.389.602 3.124.96 5.006.96zM128.812 464.814c3.225-3.227 4.356-7.329 2.525-9.161l-8.525 8.531a6.684 6.684 0 0 1 1.782 3.493c1.407-.557 2.887-1.531 4.218-2.863zM122.799 458.343c0-4.564-2.099-8.265-4.687-8.265v12.065a6.662 6.662 0 0 1 3.727 1.21c.602-1.39.96-3.126.96-5.01zM113.975 458.022c-3.225-3.227-7.324-4.359-9.154-2.527l8.525 8.531a6.668 6.668 0 0 1 3.49-1.782c-.557-1.409-1.53-2.89-2.861-4.222zM107.509 464.039c-4.561 0-8.259 2.1-8.259 4.691h12.056a6.665 6.665 0 0 1 1.209-3.73c-1.389-.602-3.124-.961-5.006-.961zM107.188 472.869c-3.225 3.228-4.356 7.33-2.525 9.161l8.525-8.531a6.673 6.673 0 0 1-1.781-3.492c-1.408.557-2.888 1.53-4.219 2.862zM113.201 479.34c0 4.565 2.099 8.265 4.687 8.265V475.54a6.66 6.66 0 0 1-3.727-1.209c-.602 1.39-.96 3.125-.96 5.009zM122.025 479.661c3.225 3.228 7.324 4.359 9.154 2.527l-8.525-8.531a6.67 6.67 0 0 1-3.49 1.783c.557 1.409 1.53 2.889 2.861 4.221z" fill="#C3FF17"/><path d="M118 462.14a6.7 6.7 0 0 0-6.696 6.702 6.698 6.698 0 0 0 6.696 6.701c3.698 0 6.696-3 6.696-6.701A6.7 6.7 0 0 0 118 462.14z" fill="#D9FADD"/><path d="M118 471.075a2.233 2.233 0 1 0-.001-4.469 2.233 2.233 0 0 0 .001 4.469z" fill="#C3FF17"/><path d="M138.117 443.824H97.883A4.89 4.89 0 0 0 93 448.71v40.263a4.89 4.89 0 0 0 4.883 4.887h40.234a4.89 4.89 0 0 0 4.883-4.887V448.71a4.89 4.89 0 0 0-4.883-4.886zm2.93 45.149a2.934 2.934 0 0 1-2.93 2.932H97.883a2.934 2.934 0 0 1-2.93-2.932V448.71a2.935 2.935 0 0 1 2.93-2.932h40.234a2.935 2.935 0 0 1 2.93 2.932v40.263z" fill="#5CCD6A"/><path d="M138.02 483.989a.977.977 0 0 0-.977.977 2.934 2.934 0 0 1-2.93 2.932.977.977 0 0 0 0 1.955 4.89 4.89 0 0 0 4.883-4.887.977.977 0 0 0-.976-.977zM134.113 447.831a.976.976 0 0 0 0 1.954 2.934 2.934 0 0 1 2.93 2.932.976.976 0 1 0 1.953 0 4.89 4.89 0 0 0-4.883-4.886zM97.98 453.694c.54 0 .977-.437.977-.977a2.934 2.934 0 0 1 2.93-2.932.976.976 0 0 0 0-1.954 4.89 4.89 0 0 0-4.883 4.886c0 .54.437.977.977.977zM101.887 487.898a2.934 2.934 0 0 1-2.93-2.932.977.977 0 0 0-1.953 0 4.89 4.89 0 0 0 4.883 4.887.977.977 0 0 0 0-1.955zM134.113 486.041a1.075 1.075 0 1 0 0-2.15 1.075 1.075 0 0 0 0 2.15zM101.984 486.041a1.075 1.075 0 1 0 0-2.15 1.075 1.075 0 0 0 0 2.15zM134.113 453.792a1.075 1.075 0 1 0 0-2.15 1.075 1.075 0 0 0 0 2.15zM101.984 453.792a1.075 1.075 0 1 0 0-2.15 1.075 1.075 0 0 0 0 2.15zM131.954 482.782a19.684 19.684 0 0 0 5.769-13.673c.002-.052.004-.103.004-.156l-.002-.022.002-.089c0-5.289-2.09-10.098-5.485-13.646a3.926 3.926 0 0 0-.214-.234.967.967 0 0 0-.098-.084 19.655 19.655 0 0 0-13.663-5.773 2.707 2.707 0 0 0-.156-.004l-.022.001-.089-.001a19.654 19.654 0 0 0-13.633 5.486 4.032 4.032 0 0 0-.237.217.946.946 0 0 0-.083.097 19.684 19.684 0 0 0-5.773 13.829V468.842c0 5.288 2.089 10.097 5.484 13.645.068.081.139.159.214.234a.978.978 0 0 0 .098.085 19.655 19.655 0 0 0 13.818 5.776l.023-.001.089.001a19.648 19.648 0 0 0 13.642-5.495c.078-.066.155-.134.228-.208a.957.957 0 0 0 .084-.097zm-27.113-25.884 6.712 6.717a14.486 14.486 0 0 0-4.044-.553c-2.738 0-5.161.696-6.838 1.821a17.763 17.763 0 0 1 4.17-7.985zm7.439 11.944a5.729 5.729 0 0 1 5.72-5.724 5.729 5.729 0 0 1 5.72 5.724 5.729 5.729 0 0 1-5.72 5.724 5.729 5.729 0 0 1-5.72-5.724zm4.632 7.6v9.901c-.539-.312-1.054-.874-1.489-1.641-.803-1.416-1.246-3.321-1.246-5.362 0-1.275.174-2.496.499-3.578a7.62 7.62 0 0 0 2.236.68zm-6.151-5.059c.262.746.635 1.44 1.101 2.061l-6.998 7.003c-.16-.602-.127-1.364.107-2.214.433-1.57 1.465-3.229 2.908-4.672.901-.902 1.886-1.643 2.882-2.178zm-.355-3.63h-9.895c.312-.539.874-1.055 1.64-1.49 1.415-.804 3.318-1.247 5.358-1.247 1.274 0 2.494.174 3.576.5a7.595 7.595 0 0 0-.679 2.237zm-4.003-12.057c.602-.16 1.363-.127 2.212.107 1.569.434 3.227 1.467 4.67 2.91.901.902 1.641 1.888 2.175 2.884a7.684 7.684 0 0 0-2.059 1.102l-6.998-7.003zm12.685 5.546v-9.902c.539.313 1.054.875 1.489 1.642.803 1.416 1.246 3.32 1.246 5.361 0 1.275-.174 2.496-.5 3.578a7.633 7.633 0 0 0-2.235-.679zm3.511 13.742 6.998 7.003c-.602.16-1.363.128-2.212-.107-1.569-.433-3.227-1.466-4.67-2.91-.901-.902-1.64-1.888-2.175-2.884a7.684 7.684 0 0 0 2.059-1.102zm2.995-5.053h9.895c-.312.539-.874 1.054-1.64 1.489-1.415.804-3.318 1.247-5.358 1.247-1.274 0-2.494-.174-3.576-.499a7.604 7.604 0 0 0 .679-2.237zm-1.456-5.692 6.998-7.003c.16.603.127 1.364-.107 2.214-.433 1.57-1.465 3.23-2.908 4.673-.901.902-1.887 1.643-2.882 2.177a7.665 7.665 0 0 0-1.101-2.061zm2.113 3.737a14.478 14.478 0 0 0 3.251-2.471c1.933-1.934 3.154-4.137 3.546-6.117a17.679 17.679 0 0 1 2.704 8.588h-9.501zm-3.028-5.585a14.52 14.52 0 0 0 .553-4.048c0-2.739-.696-5.164-1.82-6.843a17.745 17.745 0 0 1 7.979 4.174l-6.712 6.717zm-6.088-1.807a14.498 14.498 0 0 0-2.469-3.253c-1.678-1.678-3.642-2.89-5.531-3.412a8.353 8.353 0 0 0-.581-.136 17.651 17.651 0 0 1 8.581-2.706v9.507zm-7.387 9.123a14.503 14.503 0 0 0-3.25 2.471c-1.933 1.934-3.154 4.137-3.546 6.117a17.675 17.675 0 0 1-2.704-8.588h9.5zm3.029 5.586a14.508 14.508 0 0 0-.553 4.047c0 2.74.696 5.165 1.82 6.843a17.743 17.743 0 0 1-7.979-4.173l6.712-6.717zm6.088 1.806a14.453 14.453 0 0 0 2.469 3.253c1.933 1.934 4.133 3.156 6.112 3.549a17.643 17.643 0 0 1-8.581 2.705v-9.507zm5.582-3.03c1.215.355 2.585.553 4.044.553 2.737 0 5.161-.696 6.838-1.821a17.76 17.76 0 0 1-4.171 7.985l-6.711-6.717z" fill="#5CCD6A"/><path d="M121.209 468.831a3.213 3.213 0 0 0-3.219-3.2 3.212 3.212 0 0 0 .021 6.422 3.214 3.214 0 0 0 3.198-3.222zm-4.464.015a1.257 1.257 0 0 1 1.251-1.261 1.258 1.258 0 0 1 .008 2.513 1.257 1.257 0 0 1-1.259-1.252z" fill="#5CCD6A"/><path d="M175 500.161c39.716 20.955 105.428 32.879 144.661 31.833 22.436-.598 66.747-2.078 98.163-36.82m0 0-4.378 5.708m4.378-5.708-8.735-2.008" stroke="#78C081" stroke-width="2" stroke-linecap="round" stroke-linejoin="round"/></svg>